<svg id="Ebene_1" data-name="Ebene 1" xmlns="http://www.w3.org/2000/svg" viewBox="0 0 288.39 350.93"><path d="M408.61,222.74m-33,29.55,0-65.1,0,0V433.92a12.25,12.25,0,0,1-12,12H139.22a12.13,12.13,0,0,1-12-12V121a12,12,0,0,1,12-12H297.44m78.2,78.2h-66.2a12,12,0,0,1-12-12V109l78.2,78.2ZM213.2,211h77.23M174.2,245H328.66M184.2,280.29H320.29M176.2,366.47h60.15" transform="translate(-120.22 -101.99)" style="fill:none;stroke:currentColor;stroke-linecap:round;stroke-linejoin:round;stroke-width:14.0000295639038px"/><polyline points="190.55 292.23 182.12 311.23 171.06 299.01 154.98 302.02 162.96 276.06" style="fill:none;stroke:currentColor;stroke-linecap:round;stroke-linejoin:round;stroke-width:7px"/><polyline points="188.88 288.2 198.5 311.41 208.88 298.01 225.44 301.6 216.66 276.11" style="fill:none;stroke:currentColor;stroke-linecap:round;stroke-linejoin:round;stroke-width:7px"/><path d="M310.41,325.43c15.13,0,27.4,12.61,27.4,28.18s-12.27,28.18-27.4,28.18S283,369.17,283,353.61s12.27-28.18,27.4-28.18Z" transform="translate(-120.22 -101.99)" style="fill:none;stroke:currentColor;stroke-linecap:round;stroke-linejoin:round;stroke-width:7px"/><path d="M310.41,317c19.66,0,35.59,16.39,35.59,36.61s-15.93,36.61-35.59,36.61-35.59-16.39-35.59-36.61S290.76,317,310.41,317" transform="translate(-120.22 -101.99)" style="fill:none;stroke:currentColor;stroke-linecap:round;stroke-linejoin:round;stroke-width:7px"/><polyline points="178.24 253.5 186.16 262.65 203.68 242.17" style="fill:none;stroke:currentColor;stroke-linecap:round;stroke-linejoin:round;stroke-width:7px"/></svg>