<svg id="Ebene_1" data-name="Ebene 1" xmlns="http://www.w3.org/2000/svg" viewBox="0 0 239 253.53"><path d="M174.78,118.61a62,62,0,0,1-110.55,0A67.72,67.72,0,0,0,0,186H0a67.7,67.7,0,0,0,67.5,67.5h104A67.7,67.7,0,0,0,239,186h0A67.71,67.71,0,0,0,174.78,118.61Zm37.72,77.25H187.83v24.67H161.4V195.86H138.5V169.43h22.9v-22.9h26.43v22.9H212.5Z"/><path d="M81.38,30.63a62,62,0,0,1,93.89,21.81C172.78,23.49,148.66,0,119.25,0,89.41,0,65,24.19,63.13,53.72A61.72,61.72,0,0,1,81.38,30.63Z"/><path d="M119.25,122c31.07,0,56.25-33.47,56.25-64.64,0-1.67-.09-3.32-.23-5A62,62,0,0,0,63.13,53.72c-.08,1.21-.13,2.44-.13,3.67C63,88.56,88.18,122,119.25,122Z"/></svg>