<svg id="Ebene_1" data-name="Ebene 1" xmlns="http://www.w3.org/2000/svg" viewBox="0 0 241.12 242.42"><g id="Layer_1" data-name="Layer 1"><path d="M120.53,91.54a433.72,433.72,0,0,0,59.39-3.83l4.59-.68c5-.76,9.18-4.14,9.18-9.18a9.23,9.23,0,0,0-8.36-9.19h0a64.78,64.78,0,0,0-35.75-57.91l-2.72,15.41-3.2,18.17a4.26,4.26,0,0,1-8.39-1.47l3.66-20.72,2.94-16.75A7.77,7.77,0,0,0,134.48,0h-27.9a7.8,7.8,0,0,0-7.39,5.39l2.94,16.75,3.66,20.72a4.26,4.26,0,0,1-8.39,1.47L94.2,26.16,91.53,10.72A64.74,64.74,0,0,0,55.79,68.63h0a9.24,9.24,0,0,0-8.39,9.19c0,5,4.19,8.42,9.21,9.18,1.5.23,3,.45,4.56.65A428.54,428.54,0,0,0,120.53,91.54Zm86.06,87.76v63.07h34.53C241.12,216.63,227.57,193.73,206.59,179.3Zm-40.06-15.14c-7.2,12.89-25.06,22-45.95,22s-38.72-9.13-45.95-22A93.35,93.35,0,0,0,59,167.53v74.89h123V167.48A92.66,92.66,0,0,0,166.53,164.16Zm-132,78.26V179.3C13.53,193.73,0,216.63,0,242.37ZM180.06,96.32A442.21,442.21,0,0,1,120.53,100a442.91,442.91,0,0,1-59.47-3.77,86,86,0,0,0,13,43.37c6.86,10.72,16,19,26.59,23.67a48.48,48.48,0,0,0,39.71,0c10.52-4.68,19.7-12.95,26.56-23.67a86,86,0,0,0,13-43.37Z" style="fill-rule:evenodd"/></g></svg>