<svg xmlns="http://www.w3.org/2000/svg" viewBox="0 0 377 377"><defs><style>.cls-1{fill:#f06b23;}.cls-2{fill:#152936;fill-rule:evenodd;}</style></defs><g id="Layer_1" data-name="Layer 1"><circle class="cls-1" cx="188.5" cy="188.5" r="188.5"/><path class="cls-2" d="M297,383.38a433.62,433.62,0,0,0,59.39-3.83l4.59-.68c5-.76,9.18-4.14,9.18-9.18a9.23,9.23,0,0,0-8.36-9.19v0a64.77,64.77,0,0,0-35.75-57.91L323.33,318l-3.2,18.17a4.26,4.26,0,0,1-8.39-1.47l3.66-20.72,2.94-16.75a7.77,7.77,0,0,0-7.39-5.39h-27.9a7.8,7.8,0,0,0-7.39,5.39l2.94,16.75,3.66,20.72a4.26,4.26,0,0,1-8.39,1.47L270.67,318,268,302.56a64.73,64.73,0,0,0-35.74,57.91v0a9.24,9.24,0,0,0-8.39,9.19c0,5,4.19,8.42,9.21,9.18,1.5.23,3,.45,4.56.65A429.15,429.15,0,0,0,297,383.38Zm86.06,87.76v63.07h34.53c0-25.74-13.55-48.64-34.53-63.07ZM343,456c-7.2,12.89-25.06,22-45.95,22s-38.72-9.13-45.95-22a93.11,93.11,0,0,0-15.59,3.37v74.89H358.54V459.32A93.11,93.11,0,0,0,343,456Zm-132,78.26V471.14c-21,14.43-34.53,37.33-34.53,63.07Zm145.53-146.1A442.91,442.91,0,0,1,297,391.88a442.91,442.91,0,0,1-59.47-3.77,86,86,0,0,0,13,43.37c6.86,10.72,16,19,26.59,23.67a48.5,48.5,0,0,0,39.71,0c10.52-4.68,19.7-12.95,26.56-23.67a86,86,0,0,0,13-43.37Z" transform="translate(-109 -235.26)"/></g></svg>