<?xml version="1.0" encoding="utf-8"?>
<!-- Generator: Adobe Illustrator 24.1.3, SVG Export Plug-In . SVG Version: 6.00 Build 0)  -->
<svg version="1.1" id="Ebene_1" xmlns="http://www.w3.org/2000/svg" xmlns:xlink="http://www.w3.org/1999/xlink" x="0px" y="0px"
	 viewBox="0 0 330 255.79" style="enable-background:new 0 0 330 255.79;" xml:space="preserve">
<style type="text/css">
	.st0{fill:none;stroke:#587F86;stroke-width:10;stroke-linecap:round;stroke-linejoin:round;stroke-miterlimit:10;}
</style>
<g>
	<g>
		<path class="st0" d="M266.57,89.96V43.29V27.45v-2.49v-2.49V5.88c-2.32-0.21-6.13-0.45-11.1-0.45c-4.86,0-10.79-0.23-17.55-0.23
			c-22.55,0-57.42-3.49-88.99,18.48C117.36,1.71,82.49,5.2,59.93,5.2c-6.76,0-12.69,0.23-17.55,0.23c-4.97,0-8.78,0.24-11.1,0.45
			v16.59v2.49v2.49v15.84v143.78c1.33-0.04,3.03-0.07,5.07-0.07c5.96,0,15.02-0.67,26.17-0.67c11.28,0,25.51,0.16,40.82,2.4"/>
		<line class="st0" x1="292.86" y1="101.16" x2="292.86" y2="45.96"/>
		<path class="st0" d="M5,45.96v173.06c0,0,62.95-11.25,114.99,1.98"/>
		<path class="st0" d="M18.97,209.3"/>
		<line class="st0" x1="148.93" y1="23.69" x2="148.93" y2="99.11"/>
	</g>
	<g>
		<g>
			<line class="st0" x1="224.45" y1="118.99" x2="224.45" y2="250.79"/>
			<path class="st0" d="M208.85,103.77c-25.49,4-21.5,18.31-53.96,23.39"/>
			<path class="st0" d="M294,127.16c-34.7-10.31-31.46-20.62-53.98-23.59"/>
			<polygon class="st0" points="123.9,180.73 154.76,127.16 185.62,180.73 			"/>
			<path class="st0" d="M185.62,180.73c0,17.08-13.82,30.93-30.86,30.93c-17.04,0-30.86-13.85-30.86-30.93"/>
			<polygon class="st0" points="325,180.73 294.14,127.16 263.28,180.73 			"/>
			<path class="st0" d="M263.28,180.73c0,17.08,13.82,30.93,30.86,30.93c17.04,0,30.86-13.85,30.86-30.93"/>
			<ellipse class="st0" cx="224.45" cy="102.99" rx="15.56" ry="15.6"/>
		</g>
		<line class="st0" x1="185.62" y1="250.79" x2="263.28" y2="250.79"/>
		<path class="st0" d="M154.76,127.16c-4.11-0.14-14.75,1.98-26.57-8.56"/>
		<path class="st0" d="M294.14,127.16c4.11-0.14,14.75,1.98,26.57-8.56"/>
	</g>
</g>
</svg>
