<?xml version="1.0" encoding="utf-8"?>
<!-- Generator: Adobe Illustrator 24.1.3, SVG Export Plug-In . SVG Version: 6.00 Build 0)  -->
<svg version="1.1" id="Ebene_1" xmlns="http://www.w3.org/2000/svg" xmlns:xlink="http://www.w3.org/1999/xlink" x="0px" y="0px"
	 viewBox="0 0 307.2 330" style="enable-background:new 0 0 307.2 330;" xml:space="preserve">
<style type="text/css">
	.st0{fill:none;stroke:#587F86;stroke-width:10;stroke-linecap:round;stroke-linejoin:round;stroke-miterlimit:10;}
</style>
<g>
	<g>
		<g>
			<g>
				<g>
					<path class="st0" d="M301.5,91.99L301.5,91.99c-0.5-5.61-5.07-10-10.7-10.26l-49.62-2.3C238.47,78.64,223.69,5,153.6,5
						C83.51,5,68.74,78.64,66.01,79.43l-49.62,2.3c-5.63,0.26-10.2,4.64-10.7,10.26l0,0c-0.19,2.17-4.54-1.1,11.07,60.15
						C37.76,234.49,85.07,294.27,153.6,325h0c68.53-30.73,115.84-90.51,136.83-172.86C306.04,90.89,301.7,94.16,301.5,91.99z"/>
				</g>
			</g>
		</g>
	</g>
	<g>
		<g>
			<line class="st0" x1="153.6" y1="116.16" x2="153.6" y2="231.91"/>
			<path class="st0" d="M140.41,103.31c-21.56,3.38-18.18,15.45-45.64,19.74"/>
			<path class="st0" d="M212.43,123.05c-29.35-8.7-26.61-17.4-45.66-19.91"/>
			<polygon class="st0" points="68.55,168.26 94.66,123.05 120.76,168.26 			"/>
			<path class="st0" d="M120.76,168.26c0,14.42-11.69,26.1-26.1,26.1c-14.42,0-26.1-11.69-26.1-26.1"/>
			<polygon class="st0" points="238.65,168.26 212.55,123.05 186.45,168.26 			"/>
			<path class="st0" d="M186.45,168.26c0,14.42,11.69,26.1,26.1,26.1s26.1-11.69,26.1-26.1"/>
			<circle class="st0" cx="153.6" cy="102.66" r="13.16"/>
		</g>
		<line class="st0" x1="120.76" y1="231.91" x2="186.45" y2="231.91"/>
		<path class="st0" d="M94.66,123.05c-3.48-0.12-12.48,1.67-22.48-7.22"/>
		<path class="st0" d="M212.55,123.05c3.48-0.12,12.48,1.67,22.48-7.22"/>
	</g>
</g>
</svg>
