<svg id="Ebene_1" data-name="Ebene 1" xmlns="http://www.w3.org/2000/svg" viewBox="0 0 259.8 239"><path d="M146.54,218.15,100.76,141a25.08,25.08,0,0,1,8.73-34.27h0a25.09,25.09,0,0,1,34.28,8.74l15.56,26.21V0H74V239h85.35V228.79A24.86,24.86,0,0,1,146.54,218.15Z"/><polygon points="239 159.33 239 115.97 218.17 159.33 239 159.33"/><path d="M0,74v85.35H111.62L100.76,141a25.08,25.08,0,0,1,8.73-34.27h0a25.09,25.09,0,0,1,34.28,8.74l20.76,35L201.26,74Z"/><path d="M107.84,139.71l38.34,64.57,5.58,9.41c4.81,8.09,16.42,11.75,24.63,6.45s11.6-16,6.46-24.62L144.5,130.94l-5.58-9.4c-4.8-8.1-16.42-11.75-24.63-6.46s-11.6,16-6.45,24.63Z"/><path d="M226.56,39.77l-25.3,52.68L161.12,176l-9.36,19.49c-4.07,8.47-2.61,19.83,6.46,24.62,8,4.25,20.27,2.61,24.63-6.45L208.14,161l40.15-83.59,9.36-19.48c4.07-8.47,2.61-19.83-6.46-24.63-8.05-4.25-20.28-2.6-24.63,6.46Z"/></svg>