<svg id="Ebene_1" data-name="Ebene 1" xmlns="http://www.w3.org/2000/svg" viewBox="0 0 288.56 375.5"><polyline points="145.69 296.57 113.15 367.83 70.49 322.01 8.48 333.31 39.24 235.96" style="fill:none;stroke:currentColor;stroke-linecap:round;stroke-linejoin:round;stroke-width:14.000029563903809px"/><polyline points="139.25 281.47 176.34 368.5 216.4 318.27 280.25 331.73 246.4 236.12" style="fill:none;stroke:currentColor;stroke-linecap:round;stroke-linejoin:round;stroke-width:14.000029563903809px"/><path d="M606.21,219.78A105.68,105.68,0,1,1,500.53,325.46,105.68,105.68,0,0,1,606.21,219.78Z" transform="translate(-461.93 -181.18)" style="fill:none;stroke:currentColor;stroke-linecap:round;stroke-linejoin:round;stroke-width:14.000029563903809px"/><path d="M606.21,188.18A137.28,137.28,0,1,1,468.93,325.46,137.28,137.28,0,0,1,606.21,188.18Z" transform="translate(-461.93 -181.18)" style="fill:none;stroke:currentColor;stroke-linecap:round;stroke-linejoin:round;stroke-width:14.000029563903809px"/><polyline points="98.21 151.33 128.73 185.68 196.33 108.86" style="fill:none;stroke:currentColor;stroke-linecap:round;stroke-linejoin:round;stroke-width:14.000029563903809px"/></svg>