<svg id="Ebene_1" data-name="Ebene 1" xmlns="http://www.w3.org/2000/svg" xmlns:xlink="http://www.w3.org/1999/xlink" viewBox="0 0 377.23 406.45"><defs><style>.cls-1,.cls-2{fill:none;}.cls-2,.cls-3{stroke:#fff;}.cls-2{stroke-linecap:round;stroke-linejoin:round;stroke-width:14px;}.cls-3,.cls-6{fill:#fff;}.cls-3{stroke-miterlimit:10;}.cls-4{clip-path:url(#clip-path);}.cls-5{clip-path:url(#clip-path-2);}</style><clipPath id="clip-path"><rect class="cls-1" x="78.22" y="107.45" width="299" height="299"/></clipPath><clipPath id="clip-path-2"><rect class="cls-1" x="78.22" y="107.45" width="299" height="299"/></clipPath></defs><path class="cls-2" d="M215.79,7.41c-49.57,0-99.57-1-149.57,0-4,1-9,5-9,9-3,101-2,203-1,304,1,6,5,12,11,12,74,1,149,0,223-.15"/><line class="cls-2" x1="295.22" y1="326.45" x2="294.82" y2="87.97"/><path class="cls-2" d="M294.82,88h-68.2a12.4,12.4,0,0,1-12.37-12.36V7.41L294.82,88Z"/><path class="cls-2" d="M55.22,26.45c-41.39,0,26.71-.19-15,.64-3.34.84-7.51,4.18-7.51,7.52-2.5,84.33-1.67,169.5-.83,253.84.83,5-.62,16,23.38,12"/><path class="cls-2" d="M32.22,59.45C.75,59.47,45.73,59.37,14,60c-2.54.63-5.71,3.17-5.71,5.71-1.9,64.13-1.27,128.9-.63,193,.63,3.81,3.17,7.62,7,7.62,47,.63-30.39-1.84,16.6-1.93"/><rect class="cls-3" x="195.22" y="153.45" width="19" height="105"/><rect class="cls-3" x="169.97" y="190.82" width="19" height="67.63"/><rect class="cls-3" x="144.97" y="214.45" width="19.26" height="43.69"/><g id="Bildmaterial_157" data-name="Bildmaterial 157"><g class="cls-4"><g class="cls-5"><path class="cls-6" d="M377.23,374.19,262,272.06a101.13,101.13,0,0,0,21.18-62.15c0-56.36-46.11-102.46-102.46-102.46S78.22,153.55,78.22,209.91s46.11,102.46,102.46,102.46a102,102,0,0,0,62.16-21.18L354.19,406.45M180.34,291.53a82,82,0,1,1,82-82,82.21,82.21,0,0,1-82,82"/></g></g></g></svg>