<svg id="Ebene_1" data-name="Ebene 1" xmlns="http://www.w3.org/2000/svg" viewBox="0 0 416.14 288.85"><polyline points="6.1 103.19 207.8 5.93 410.3 91.17 207.8 169.93 6.1 103.19" style="fill:currentColor"/><path d="M484.06,300.44l68.07-32.82,108.59-52.36,25-12.08-4.63.61,68.64,28.89L858.6,278.49l25,10.54V277.46l-67.37,26.2L708,345.76l-17.26,6.71c-2.66,1-6.49,1.78-8.83,3.43-1.83,1.29,1.39-.52,2.24.27a7.9,7.9,0,0,0-2.36-.78L670,351.47l-104-34.4c-27.28-9-54.43-19-82-27.13-.47-.14-.92-.31-1.38-.46-7.35-2.43-10.5,9.15-3.19,11.57l70,23.16,109.06,36.08c7.33,2.43,15,6,22.59,7.48,2.68.53,4.5-.47,6.9-1.41l13.29-5.17L805,320.84c26.82-10.43,53.69-20.74,80.46-31.29l1.33-.52c5.79-2.25,5.54-9.24,0-11.57l-70.4-29.64-109.24-46L691,195c-2.12-.89-4.4-2.24-6.64-2.8-2.89-.72-5.6,1-8.13,2.24l-13,6.28L560,250.52l-52.19,25.17c-9.49,4.57-19.2,8.84-28.52,13.75-.43.23-.89.43-1.33.64-6.95,3.36-.87,13.71,6.06,10.36Z" transform="translate(-474.93 -192.07)" style="fill:currentColor"/><path d="M802.13,332.22l-103.3,39.27-10.7,4.06c-1.88.72-4.36,1.24-6.08,2.31-.18.12-.79.16-.91.35.7-1.14,4.45.92,2.29-.29-1.82-1-4.36-1.41-6.34-2.05L616.84,356.3l-49.52-16.08c-7.36-2.4-10.51,9.19-3.19,11.57L669.57,386c3.95,1.29,9.64,4.41,13.95,3.86,4.08-.51,8.42-3,12.22-4.44L757.31,362l48-18.25c7.15-2.72,4-14.33-3.19-11.57Z" transform="translate(-474.93 -192.07)" style="fill:currentColor"/><path d="M802.13,426.22l-104,36.95-10.57,3.76c-1.65.59-4.31,1-5.75,2-1.7,1.23,1.84-.82,2.49.24-.13-.21-.95-.3-1.17-.4a59.93,59.93,0,0,0-6.45-2.24L616.5,445.72l-49-17c-7.31-2.54-10.45,9-3.19,11.57L669.1,476.62c3.87,1.34,8,3.38,12,4.17,4.31.84,9.78-2.34,13.69-3.73l61.69-21.93,48.81-17.34c7.23-2.57,4.12-14.17-3.19-11.57Z" transform="translate(-474.93 -192.07)" style="fill:currentColor"/><path d="M559.75,347.44v87.88c0,7.72,12,7.73,12,0V347.44c0-7.72-12-7.73-12,0Z" transform="translate(-474.93 -192.07)" style="fill:currentColor"/><path d="M797.73,341.19v87.88c0,7.72,12,7.73,12,0V341.19c0-7.72-12-7.73-12,0Z" transform="translate(-474.93 -192.07)" style="fill:currentColor"/><path d="M866.73,291.07V466.82c0,7.72,12,7.73,12,0V291.07c0-7.73-12-7.74-12,0Z" transform="translate(-474.93 -192.07)" style="fill:currentColor"/></svg>