<svg id="Ebene_1" data-name="Ebene 1" xmlns="http://www.w3.org/2000/svg" viewBox="0 0 237 187.72"><defs><style>.cls-1,.cls-9{fill:#f06b23;}.cls-10,.cls-2,.cls-3,.cls-4,.cls-5,.cls-6,.cls-7,.cls-8{fill:#152936;}.cls-10,.cls-3,.cls-5,.cls-6,.cls-7,.cls-9{stroke:#152936;}.cls-10,.cls-3,.cls-4,.cls-5,.cls-6,.cls-7,.cls-8,.cls-9{stroke-miterlimit:10;}.cls-4{stroke:#587f86;}.cls-4,.cls-7{stroke-width:2px;}.cls-5{stroke-width:3px;}.cls-6{stroke-width:4px;}.cls-8{stroke:#f06b23;}.cls-10{stroke-width:7px;}</style></defs><path class="cls-1" d="M14.26,39V72.78h0V187h206V39Z"/><rect class="cls-1" x="151.83" y="25.4" width="28" height="14"/><rect class="cls-1" x="54.32" y="25.34" width="28" height="14"/><path class="cls-1" d="M2.72,73C-4.82,48.11,3.86,36.46,22.15,40.11"/><rect class="cls-1" x="3.06" y="45.6" width="18.51" height="27.43"/><rect class="cls-1" x="215.52" y="45.37" width="18.51" height="27.43"/><path class="cls-1" d="M234.29,72.8c7.54-24.91-1.15-36.57-19.43-32.91"/><rect class="cls-1" x="71.98" y="9.94" width="10.29" height="20.57"/><rect class="cls-1" x="151.75" y="10.17" width="10.29" height="20.57"/><rect class="cls-1" x="72.03" width="90.11" height="11.66" rx="5.83"/><rect class="cls-1" x="72.09" y="4.46" width="8.91" height="9.49"/><rect class="cls-2" x="110.03" y="0.69" height="0.34"/><rect class="cls-1" x="152.09" y="5.37" width="9.94" height="10.63"/><rect class="cls-3" x="37.35" y="131.85" width="12.53" height="54.86" rx="3.43"/><path class="cls-3" d="M34.64,135.81l-6.05-.93a1,1,0,0,1-.8-.94V123.19a1,1,0,0,1,1.09-.94l6.05.93a1,1,0,0,1,.81.94v10.75A1,1,0,0,1,34.64,135.81Z"/><polygon class="cls-3" points="32.52 124.49 38.55 128.68 44.58 132.86 38.95 135.35 33.32 137.83 32.92 131.16 32.52 124.49"/><line class="cls-4" x1="12.86" y1="71.96" x2="221.32" y2="71.96"/><polygon class="cls-2" points="75.46 59.47 79.78 71.96 75.46 84.46 66.82 84.46 62.5 71.96 66.82 59.47 75.46 59.47"/><polygon class="cls-2" points="171.38 58.93 175.7 71.43 171.38 83.92 162.74 83.92 158.42 71.43 162.74 58.93 171.38 58.93"/><path class="cls-3" d="M131.05,136.3l-.69,45.91a2.27,2.27,0,0,0,2.23,2.26h0l6.09-.08a2.28,2.28,0,0,0,2.21-2.35l-1.7-45.84Z"/><path class="cls-3" d="M95.6,186.63a3.2,3.2,0,0,1-3.13-3.24l-.07-28.47a3.07,3.07,0,0,1-1-.66,3.18,3.18,0,0,1-.88-2.19V150a3.12,3.12,0,0,1,.86-2.2,3,3,0,0,1,2.11-.91l15.14,0h0a2.91,2.91,0,0,1,2.1.9,3.1,3.1,0,0,1,.88,2.19V152a3.18,3.18,0,0,1-.87,2.2,3.07,3.07,0,0,1-1,.66l.07,28.47a3.19,3.19,0,0,1-3.11,3.26"/><path class="cls-3" d="M93.29,152.52h.11a1.3,1.3,0,0,1,1.27,1.32l.07,29.54a.6.6,0,0,0,.59.61h0l11.21,0a.59.59,0,0,0,.58-.61l-.07-29.55a1.32,1.32,0,0,1,.37-.93,1.24,1.24,0,0,1,.9-.39.54.54,0,0,0,.42-.14.5.5,0,0,0,.13-.32v-2.08a.46.46,0,0,0-.13-.33.43.43,0,0,0-.31-.13h0l-15.14,0a.41.41,0,0,0-.31.14.46.46,0,0,0-.13.32v2.08a.46.46,0,0,0,.13.33.46.46,0,0,0,.32.13Z"/><path class="cls-3" d="M50.87,125.27"/><path class="cls-3" d="M106.54,109.6a1.24,1.24,0,0,0-1-.44h0l-9.15,0a1.27,1.27,0,0,0-1,.45,1.37,1.37,0,0,0-.3,1.05l.87,6.73a2.25,2.25,0,0,0,1.83,2.14L98,148.19a1.29,1.29,0,0,0,1.27,1.31H103a1.25,1.25,0,0,0,.89-.38,1.36,1.36,0,0,0,.37-.94l-.07-28.63a2.17,2.17,0,0,0,1.23-.64,2.31,2.31,0,0,0,.63-1.52l.8-6.74A1.34,1.34,0,0,0,106.54,109.6Zm-6,37.26-.07-27.27a6.06,6.06,0,0,0,.76,0l.46,0,.07,27.24Z"/><path class="cls-3" d="M158.07,119.64a17.17,17.17,0,0,0-12.57-5.24h0c-.44,0-.87,0-1.3.06l-1.71-3a1.79,1.79,0,0,0-1.61-.94l-12.21.14a1.85,1.85,0,0,0-1.58,1l-1.7,3.13-4.43.06v-1.46a1.89,1.89,0,0,0-1.85-1.9h0l-7.11.09a1.8,1.8,0,0,0-1.3.57,2,2,0,0,0-.53,1.37l.22,19.62a1.93,1.93,0,0,0,.55,1.35,1.64,1.64,0,0,0,1.31.54l7.12-.08a1.89,1.89,0,0,0,1.82-1.94v-.9l4.21-.05,2,3.5a1.86,1.86,0,0,0,1.16.88l-.69,45.78a4.87,4.87,0,0,0,4.77,4.91l6.15-.08a4.89,4.89,0,0,0,4.72-5.05l-1.69-45.77a1.89,1.89,0,0,0,1-.85l3.32-6.13a15,15,0,0,1,13.3,8.67A1.84,1.84,0,0,0,161,139h.19a1.86,1.86,0,0,0,1.6-1.42,19.09,19.09,0,0,0,.59-4.94A18.57,18.57,0,0,0,158.07,119.64ZM160.71,135a17,17,0,0,0-2.13-2.76,4.41,4.41,0,0,0,2.17-1.32,15.62,15.62,0,0,1,.11,1.68A16.12,16.12,0,0,1,160.71,135Z"/><line class="cls-5" x1="101.64" y1="115.56" x2="101.53" y2="152.7"/><line class="cls-6" x1="160.75" y1="130.94" x2="160.71" y2="135.02"/><path class="cls-3" d="M28.07,122.46a.67.67,0,0,0,.18,1.07l4.31,2.08,4.65,3.57c.44.21.5-1.66.5-2.15l0-6.57,0-6a.67.67,0,0,0-1.14-.46l-4,4Z"/><path class="cls-3" d="M28.72,133.73a.77.77,0,0,0-.24,1.33l4.71,3.82,4.53,3.68A.77.77,0,0,0,39,142l0-5.06,0-5.6a.77.77,0,0,0-1-.73l-4.75,1.63Z"/><path class="cls-3" d="M177.08,175.48l0,5.69a3.3,3.3,0,0,1-3.18,3.4l-5.37,0a.67.67,0,0,1-.62-.43.74.74,0,0,1,.14-.78l7.86-8.4a.65.65,0,0,1,.73-.16A.72.72,0,0,1,177.08,175.48Zm-6.91,7.68h3.74a1.93,1.93,0,0,0,1.85-2l0-4Z"/><path class="cls-3" d="M179.13,155a2.17,2.17,0,0,0-2.11-2.22H175l0-6.69a.68.68,0,1,0-1.35,0l0,6.69h-1.87a2.14,2.14,0,0,0-2.08,2.11l-3.91,0a3,3,0,0,0-.55.06q-.66-.06-1.32-.06c-8.41,0-15.22,7.32-15.18,16.23s6.91,16.13,15.33,16.1c.43,0,.88,0,1.36-.06a2.92,2.92,0,0,0,.5.05l9.94,0a3.56,3.56,0,0,0,3.43-3.67Zm-3.31,30.79-9,0a3.66,3.66,0,0,0,.67-2.13,3.09,3.09,0,0,0,1.19-1.32,3,3,0,0,0,.77-.85c2.94-1.33,2.45-6.56-1.5-6.56a3.64,3.64,0,0,0-1.37.26h-.43c-2.74.07-5.48.21-8.21.05a3.35,3.35,0,0,0-.61-1.15,3.4,3.4,0,0,0,.18-1l-.13-.91a2.43,2.43,0,0,0-.13-.38v0a4,4,0,0,0-.16-1.49,4,4,0,0,0,0-1.15,3.89,3.89,0,0,0,0-2,3.66,3.66,0,0,0,.23-1.08c.06-.08.11-.17.17-.26a1.67,1.67,0,0,0,.31,0l1.31-.15,9.41.37c.92,0,1.86.1,2.77.06.07,1.93.09,3.86.07,5.79,0,2.87,2.94,3.87,5,3a3.34,3.34,0,0,0,1.45-.6l0,9.33A2.17,2.17,0,0,1,175.82,185.74Z"/><path class="cls-3" d="M179.09,146v2.38a.71.71,0,0,1-.67.72h-4.17a.69.69,0,0,1-.68-.71v-2.37a.69.69,0,0,1,.67-.72l4.17,0A.7.7,0,0,1,179.09,146Zm-1.34,1.67v-.95h-2.83v1Z"/><path class="cls-3" d="M171,166.82l0,7.3a.69.69,0,0,1-.67.71l-12,.06a.69.69,0,0,1-.67-.71l0-7.31a.69.69,0,0,1,.67-.71l12,0A.69.69,0,0,1,171,166.82Zm-1.32,6.59,0-5.88-10.61.05,0,5.88Z"/><path class="cls-3" d="M167.55,168.92v3.13a.69.69,0,0,1-.67.71l-5.12,0a.69.69,0,0,1-.68-.71v-3.13a.69.69,0,0,1,.67-.71l5.12,0A.69.69,0,0,1,167.55,168.92Zm-1.34,2.42v-1.71l-3.78,0v1.71Z"/><path class="cls-3" d="M86.21,157.37a10.49,10.49,0,0,0-.36-2.62,7.94,7.94,0,0,0-1-2.27,3.75,3.75,0,0,0-3.17-1.94L65.2,151a1.06,1.06,0,0,0-.19,0l-.59-52.65c0-1.38.69-2.52,1.57-2.54l17.6-.54c.58,0,1-.78,1-1.69a2.06,2.06,0,0,0-.09-.62c-.16-.6-.54-1-1-1L66,92.58c-2,.07-3.67,2.72-3.64,5.92l.6,53.64a5.49,5.49,0,0,0-.83,1,9.34,9.34,0,0,0-1.25,5l.24,21.69a9.17,9.17,0,0,0,1.36,4.89,3.74,3.74,0,0,0,3.17,1.94l16.48-.5A3.94,3.94,0,0,0,85.2,184a9.34,9.34,0,0,0,1.25-5Zm-19,14.55a.46.46,0,0,1,.37-.25l12.2-.38c.29,0,.54.36.54.82l.07,5.71a1.19,1.19,0,0,1-.15.59.49.49,0,0,1-.38.26l-12.2.37c-.29,0-.53-.36-.54-.81l-.06-5.72A1.09,1.09,0,0,1,67.2,171.92Zm16.48,9.82A2,2,0,0,1,82,182.86l-16.48.51a2,2,0,0,1-1.66-1,4.09,4.09,0,0,1-.53-1.2,5.46,5.46,0,0,1-.19-1.37l-.12-10.41a4.39,4.39,0,0,0,2.19,1.23,5.83,5.83,0,0,0-.31,2l.06,5.71c0,2.28,1.23,4.1,2.69,4.06l12.2-.38a2.32,2.32,0,0,0,1.85-1.27,5.47,5.47,0,0,0,.74-2.94L82.42,172a6.68,6.68,0,0,0-.19-1.45,4.46,4.46,0,0,0,2-1.08l.11,9.62A4.89,4.89,0,0,1,83.68,181.74Z"/><path class="cls-3" d="M84.69,93a2.35,2.35,0,0,1-.24,1.84l-3.83,5.82,4,5.59a2.1,2.1,0,0,1,.35,1.2,2.18,2.18,0,0,1-.32,1.22l-3.84,5.82,4,5.59a2.32,2.32,0,0,1,0,2.42l-3.83,5.82,4,5.59a2.2,2.2,0,0,1,.35,1.2,2.18,2.18,0,0,1-.32,1.22l-3.84,5.83,4,5.58a2.38,2.38,0,0,1,.07,2.34.82.82,0,0,1-1.49.12l-4.8-6.77a2.14,2.14,0,0,1-.35-1.19,2.26,2.26,0,0,1,.32-1.22l3.84-5.83-4-5.59a2.36,2.36,0,0,1,0-2.41l3.84-5.83-4-5.59a2.18,2.18,0,0,1-.35-1.2,2.25,2.25,0,0,1,.32-1.21l3.84-5.83-4-5.59a2.1,2.1,0,0,1-.35-1.2,2.18,2.18,0,0,1,.32-1.22L83,92.5a.82.82,0,0,1,1.49,0A2,2,0,0,1,84.69,93Z"/><line class="cls-5" x1="63.16" y1="182.84" x2="63.79" y2="170.44"/><line class="cls-5" x1="84.21" y1="167.19" x2="82.04" y2="182.86"/><line class="cls-5" x1="63.05" y1="170.45" x2="65.51" y2="169.97"/><line class="cls-5" x1="63.9" y1="182.99" x2="82.04" y2="182.22"/><line class="cls-5" x1="64.94" y1="174.15" x2="65.56" y2="183.74"/><line class="cls-5" x1="81.88" y1="169.63" x2="83.68" y2="181.74"/><line class="cls-5" x1="157.47" y1="159.24" x2="161.08" y2="173.69"/><line class="cls-7" x1="156.14" y1="165.42" x2="174.18" y2="165.42"/><line class="cls-7" x1="156.98" y1="162.87" x2="157.1" y2="181.45"/><line class="cls-7" x1="152.73" y1="175.61" x2="174.98" y2="175.49"/><line class="cls-7" x1="171.65" y1="162.95" x2="171.77" y2="178.94"/><line class="cls-7" x1="174.87" y1="172.8" x2="168.67" y2="178.38"/><line class="cls-5" x1="165.75" y1="184.39" x2="177.3" y2="172.08"/><line class="cls-5" x1="167.43" y1="185.64" x2="176.46" y2="185.64"/><ellipse class="cls-3" cx="166.48" cy="185.06" rx="1.2" ry="1.76"/><path class="cls-3" d="M178.78,173.21a3.57,3.57,0,0,0-3.92-3.43c.12-2.6-2.6-5.23-4.85-6.17-3.06-1.27-7.36.57-9.92-1.32-3.61-2.65-7.11,3.3-3.54,5.93l.06,0a7.91,7.91,0,0,0-1.51.81,3.44,3.44,0,0,0,.83,6.26,54.43,54.43,0,0,0,10.48,1.54,53.22,53.22,0,0,0,5.46.31l0,1.19a24.08,24.08,0,0,0-5.12.33c-4.44.74-2.56,7.35,1.86,6.61a13.69,13.69,0,0,1,5.94.37,3.53,3.53,0,0,0,4.44-3.31Z"/><ellipse class="cls-8" cx="164.31" cy="171.1" rx="6.31" ry="6.69"/><ellipse class="cls-9" cx="164.31" cy="171.1" rx="2.23" ry="2.28"/><path class="cls-3" d="M51.9,135.82l6.05-.93a1,1,0,0,0,.8-.94V123.2a1,1,0,0,0-1.09-.94l-6,.93a1,1,0,0,0-.8.94v10.75A1,1,0,0,0,51.9,135.82Z"/><polygon class="cls-3" points="54.02 124.5 47.99 128.69 41.96 132.87 47.59 135.35 53.22 137.84 53.62 131.17 54.02 124.5"/><path class="cls-3" d="M58.47,122.47a.66.66,0,0,1-.18,1.07L54,125.62l-4.64,3.57c-.45.21-.51-1.66-.51-2.15l0-6.57,0-6A.66.66,0,0,1,50,114l4,4Z"/><path class="cls-3" d="M57.83,133.74a.76.76,0,0,1,.23,1.32l-4.71,3.83-4.52,3.67a.77.77,0,0,1-1.26-.6l0-5.05,0-5.61a.77.77,0,0,1,1-.72l4.75,1.63Z"/><path class="cls-3" d="M199.08,112a2.72,2.72,0,0,1,2.06-1.11,3,3,0,0,1,2.67,2L216.1,139.9a5.17,5.17,0,0,1,.05,4,3,3,0,0,1-2.63,2.08l-23.89.51a3,3,0,0,1-2.67-2,5.11,5.11,0,0,1-.05-4L198.51,113A4.13,4.13,0,0,1,199.08,112Zm15.51,31.53a2.62,2.62,0,0,0,.3-.52,2.74,2.74,0,0,0,0-2.14l-12.29-27a1.58,1.58,0,0,0-1.41-1,1.61,1.61,0,0,0-1.39,1.1l-11.6,27.56a2.7,2.7,0,0,0,0,2.14,1.58,1.58,0,0,0,1.42,1l23.89-.52A1.44,1.44,0,0,0,214.59,143.53Zm-11.4-30.19h0Z"/><path class="cls-3" d="M199.68,139.28a.68.68,0,0,1,.49-.27l2.57,0a2.32,2.32,0,0,1,1.89,1,4.12,4.12,0,0,1,.81,2.46l.15,12.76a.86.86,0,0,1-.7,1,.84.84,0,0,1-.73-.93L204,142.43a1.93,1.93,0,0,0-.37-1.13,1.11,1.11,0,0,0-.86-.45l-2.58.06c-.4,0-.72-.41-.73-.93A1.1,1.1,0,0,1,199.68,139.28Z"/><path class="cls-10" d="M205.25,176.75"/><path class="cls-10" d="M204.89,156.12"/><rect class="cls-10" x="201.23" y="155.97" width="4.42" height="28.07" rx="0.51"/></svg>