<svg id="Ebene_1" data-name="Ebene 1" xmlns="http://www.w3.org/2000/svg" viewBox="0 0 361.66 361.66"><defs><style>.cls-1{fill:none;stroke:currentColor;stroke-linecap:round;stroke-linejoin:round;stroke-width:14px;}</style></defs><path class="cls-1" d="M124.9,162.32l0-45.83c0-25.24-38.4-23.68-38.35,3.52l.11,60.54,2.65,76.15c1.87,53.64,122.91,68.25,152.12,22.86l57.78-71.8c5.85-8.78,3-20.48-6.22-26-10.86.15-26.23,1.76-33,10l-20.5,24.85L240,90.79c.08-22-37-27.55-37.54.51l-1.07,58.37"/><path class="cls-1" d="M162.51,150.34l-.23-79.28c-.07-22,38.51-27.54,38.67.51l.44,77"/><path class="cls-1" d="M124.75,117l-.11-27.24c-.1-22,37-27.56,37.7.51"/><path class="cls-1" d="M213.56,162.51c-35.92-7.86-70.7-6.79-103.84,7.32"/><path class="cls-1" d="M239.52,216.58c-32.51,1.88-53,13.8-61.46,36.44"/><polygon class="cls-1" points="110.66 7 182.39 7.65 254.13 8.29 304.4 59.48 354.67 110.66 354.02 182.39 353.37 254.13 302.19 304.4 251.01 354.66 179.27 354.02 107.54 353.37 57.27 302.19 7 251.01 7.65 179.27 8.3 107.54 59.48 57.27 110.66 7 110.66 7"/></svg>