<svg id="Ebene_1" data-name="Ebene 1" xmlns="http://www.w3.org/2000/svg" viewBox="0 0 346.55 353.45"><polyline points="52.02 131.91 64.69 148.44 90.56 114.96" style="fill:none;stroke:currentColor;stroke-linecap:round;stroke-linejoin:round;stroke-width:14.0000295639038px"/><line x1="119.31" y1="135.06" x2="202.41" y2="135.06" style="fill:none;stroke:currentColor;stroke-linecap:round;stroke-linejoin:round;stroke-width:14.0000305175781px"/><polyline points="52.02 184.77 64.69 201.3 90.56 167.82" style="fill:none;stroke:currentColor;stroke-linecap:round;stroke-linejoin:round;stroke-width:14.0000295639038px"/><line x1="119.31" y1="187.92" x2="183.62" y2="187.92" style="fill:none;stroke:currentColor;stroke-linecap:round;stroke-linejoin:round;stroke-width:14.0000305175781px"/><polyline points="51.65 237.26 64.32 253.79 90.19 220.31" style="fill:none;stroke:currentColor;stroke-linecap:round;stroke-linejoin:round;stroke-width:14.0000295639038px"/><path d="M118.93,240.41H202M47,63.48h83.1" style="fill:none;stroke:currentColor;stroke-linecap:round;stroke-linejoin:round;stroke-width:14.0000305175781px"/><path d="M167.57,7.41C118,7.45,68,6.45,18,7.45c-4,1-9,5-9,9-3,101-2,203-1,304,1,6,5,12,11,12,74,1,149,0,223-.15" style="fill:none;stroke:currentColor;stroke-linecap:round;stroke-linejoin:round;stroke-width:14.0000295639038px"/><line x1="246.59" y1="220.45" x2="246.59" y2="87.97" style="fill:none;stroke:currentColor;stroke-linecap:round;stroke-linejoin:round;stroke-width:14.0000295639038px"/><line x1="246.59" y1="301.91" x2="246.59" y2="264.45" style="fill:none;stroke:currentColor;stroke-linecap:round;stroke-linejoin:round;stroke-width:14.0000295639038px"/><path d="M246.59,88h-68.2A12.39,12.39,0,0,1,166,75.61V7.41L246.59,88Z" style="fill:none;stroke:currentColor;stroke-linecap:round;stroke-linejoin:round;stroke-width:14.0000295639038px"/><polygon points="190.64 176.98 197.36 200.16 204.07 223.34 219.28 210.24 234.5 197.13 212.57 187.06 190.64 176.98 190.64 176.98"/><polygon points="190.59 176.59 193.98 188.29 197.38 199.99 205.06 193.38 212.74 186.76 201.66 181.67 190.59 176.59 190.59 176.59"/><path d="M233.15,217l93.66,108.93-9.1,7.83L224.05,224.77l9.1-7.82m1.49-19.74-30.33,26.07L316.22,353.45l30.33-26.08L234.64,197.21Z"/></svg>