<?xml version="1.0" encoding="utf-8"?>
<!-- Generator: Adobe Illustrator 25.4.1, SVG Export Plug-In . SVG Version: 6.00 Build 0)  -->
<svg version="1.1" id="Ebene_1" xmlns="http://www.w3.org/2000/svg" xmlns:xlink="http://www.w3.org/1999/xlink" x="0px" y="0px"
	 viewBox="0 0 970 750" style="enable-background:new 0 0 970 750;" xml:space="preserve">
<style type="text/css">
	.st0{fill:none;stroke:#152936;stroke-width:20;stroke-miterlimit:10;}
	.st1{fill:none;stroke:#152936;stroke-width:30;stroke-miterlimit:10;}
	.st2{fill:none;stroke:#152936;stroke-width:8;stroke-miterlimit:10;}
</style>
<rect x="10" y="10" class="st0" width="950" height="730"/>
<line class="st1" x1="917.3" y1="46" x2="41.3" y2="700"/>
<path class="st2" d="M843,614H114c-6.6,0-12-5.4-12-12V203c0-6.6,5.4-12,12-12h729c6.6,0,12,5.4,12,12v399
	C855,608.6,849.6,614,843,614z"/>
<ellipse class="st2" cx="468.5" cy="410" rx="119.5" ry="124"/>
<path class="st2" d="M198.3,191.4c-0.8-2.1-1.3-4.6-1.3-7.1V159c0-8.8,5.4-16,12-16h176c6.6,0,12,7.2,12,16v25.3
	c0,1.9-0.3,3.8-0.7,5.5"/>
<path class="st2" d="M127,191.4c-1.3-2.5-2-5.6-2-8.8v-22.6c0-8.8,5.4-15.9,12-15.9h28c6.6,0,12,7.2,12,15.9v22.6
	c0,3.8-1,7.2-2.6,9.9"/>
<ellipse class="st2" cx="467.8" cy="409.2" rx="134.2" ry="138.8"/>
<path class="st2" d="M811,291H666c-6.6,0-12-5.4-12-12v-38c0-6.6,5.4-12,12-12h145c6.6,0,12,5.4,12,12v38
	C823,285.6,817.6,291,811,291z"/>
</svg>
