<svg id="Ebene_1" data-name="Ebene 1" xmlns="http://www.w3.org/2000/svg" viewBox="0 0 237 184.01"><rect x="151.83" y="25.4" width="28" height="14"/><rect x="54.32" y="25.34" width="28" height="14"/><path d="M2.72,76C-4.82,48.14,3.86,35.1,22.15,39.19"/><rect x="3.06" y="45.33" width="18.51" height="30.68"/><rect x="215.52" y="45.14" width="18.51" height="30.87"/><path d="M234.29,76c7.54-28-1.15-41.16-19.43-37"/><rect x="71.98" y="9.94" width="10.29" height="20.57"/><rect x="151.75" y="10.17" width="10.29" height="20.57"/><rect x="72.03" width="90.11" height="11.66" rx="5.83"/><rect x="72.09" y="4.46" width="8.91" height="9.49"/><rect x="152.09" y="5.37" width="9.94" height="10.63"/><path d="M50.87,125.27" style="stroke:currentColor;stroke-miterlimit:10"/><path d="M75.25,51.28,81.72,70h70.56l6.47-18.73h13.5L178.72,70h39.54V39h-206v7.07h0V70h43l6.47-18.73Z"/><path d="M178.58,76l-6.33,18.31h-13.5L152.42,76H81.58L75.25,94.32H61.75L55.42,76H15.26v24.64h.6s0,0,0,0h-.55V184h206V76Z"/></svg>