<svg id="Ebene_1" data-name="Ebene 1" xmlns="http://www.w3.org/2000/svg" xmlns:xlink="http://www.w3.org/1999/xlink" viewBox="0 0 1366 768"><defs><style>.cls-1{fill:#06151d;opacity:0.5;}.cls-2{font-size:50px;fill:#dfeeef;font-family:Oswald-Regular, Oswald;}.cls-3{fill:#f06b23;}</style></defs><image width="3840" height="2160" transform="translate(0 0) scale(0.36 0.36)" xlink:href="../../Downloads/AdobeStock_370737047.jpeg"/><rect class="cls-1" width="1366" height="768"/><text class="cls-2" transform="translate(336.97 469.5)">Kein Bild </text><g id="Cogs"><path id="Cog" class="cls-3" d="M429.62,364.44l7.68-2.34v-7.77L429.62,352a22.63,22.63,0,0,0-1-2.87,24.79,24.79,0,0,0-1.18-2.43l3.79-7.15-5.41-5.49-7.06,3.84a23.13,23.13,0,0,0-2.39-1.19,20.23,20.23,0,0,0-2.83-1l-2.31-7.79h-7.67l-2.31,7.79a21.17,21.17,0,0,0-2.83,1,23.13,23.13,0,0,0-2.39,1.19L389,334.05l-5.41,5.49,3.79,7.15a24.79,24.79,0,0,0-1.18,2.43,21.59,21.59,0,0,0-1,2.87l-7.68,2.34v7.77l7.68,2.34a22.63,22.63,0,0,0,1,2.87,24.79,24.79,0,0,0,1.18,2.43l-3.79,7.15,5.41,5.49,7.06-3.84a23.13,23.13,0,0,0,2.39,1.19,20.23,20.23,0,0,0,2.83,1l2.31,7.79h7.67l2.31-7.79a21.17,21.17,0,0,0,2.83-1,23.13,23.13,0,0,0,2.39-1.19l7.06,3.84,5.41-5.49-3.79-7.15a24.79,24.79,0,0,0,1.18-2.43A22.63,22.63,0,0,0,429.62,364.44Zm-10.18-6.23a12,12,0,1,1-12-12.21A12.13,12.13,0,0,1,419.44,358.21Z" transform="translate(0 0)"/><path id="Cog-2" data-name="Cog" class="cls-3" d="M458.42,329.74l5.54.56,2-5-4.32-3.58a18.7,18.7,0,0,0,.13-2.12,14.44,14.44,0,0,0-.13-1.87l4.32-3.59-2-5-5.54.57a16.32,16.32,0,0,0-2.79-2.83l.56-5.62-4.92-2.06-3.54,4.37a18.18,18.18,0,0,0-2.09-.13,14.26,14.26,0,0,0-1.85.13l-3.53-4.37-4.91,2.06.56,5.62a14.9,14.9,0,0,0-1.4,1.25,17.26,17.26,0,0,0-1.39,1.58l-5.54-.57-2,5,4.32,3.59a18.39,18.39,0,0,0-.13,2.11,14.72,14.72,0,0,0,.13,1.88l-4.32,3.58,2,5,5.56-.56a18,18,0,0,0,1.22,1.42,17.26,17.26,0,0,0,1.57,1.4l-.56,5.62,4.92,2.07,3.54-4.38a17.87,17.87,0,0,0,2.08.13,14.13,14.13,0,0,0,1.85-.13l3.54,4.38,4.92-2.07-.56-5.63a14.9,14.9,0,0,0,1.4-1.25A17.27,17.27,0,0,0,458.42,329.74ZM453.51,323a8.34,8.34,0,0,1-10.94,4.6A8.54,8.54,0,0,1,438,316.5,8.35,8.35,0,0,1,449,311.89,8.53,8.53,0,0,1,453.51,323Z" transform="translate(0 0)"/><path id="Cog-3" data-name="Cog" class="cls-3" d="M430.1,296.57l3.31-1v-3.34l-3.31-1a10.68,10.68,0,0,0-.43-1.24,10.17,10.17,0,0,0-.51-1.05l1.64-3.09-2.35-2.37-3,1.66a8.21,8.21,0,0,0-1-.51,11.29,11.29,0,0,0-1.23-.44l-1-3.36h-3.32l-1,3.38a7.69,7.69,0,0,0-1.22.43,9.17,9.17,0,0,0-1,.52l-3-1.66-2.34,2.37,1.64,3.08a9.21,9.21,0,0,0-.51,1,8.4,8.4,0,0,0-.43,1.25l-3.32,1v3.36l3.32,1a7.91,7.91,0,0,0,.43,1.24,8.47,8.47,0,0,0,.51,1.05L410.22,302l2.34,2.37,3-1.66a9.17,9.17,0,0,0,1,.52,8.83,8.83,0,0,0,1.22.43l1,3.36h3.29l1-3.36a9.32,9.32,0,0,0,1.22-.43,11.2,11.2,0,0,0,1-.52l3,1.66,2.34-2.37-1.64-3.12a8.47,8.47,0,0,0,.51-1.05A12.9,12.9,0,0,0,430.1,296.57Zm-4.38-2.68a5.2,5.2,0,1,1-5.2-5.27A5.23,5.23,0,0,1,425.72,293.89Z" transform="translate(0 0)"/></g></svg>