<svg id="Ebene_1" data-name="Ebene 1" xmlns="http://www.w3.org/2000/svg" xmlns:xlink="http://www.w3.org/1999/xlink" viewBox="0 0 1366 768"><defs><style>.cls-1{fill:#06151d;opacity:0.5;}.cls-2{font-size:75px;fill:#dfeeef;font-family:Oswald-Regular, Oswald;}.cls-3{fill:#f06b23;}</style></defs><image width="3840" height="2160" transform="scale(0.36 0.36)" xlink:href="../../Downloads/AdobeStock_370737047.jpeg"/><rect class="cls-1" width="1366" height="768"/><text class="cls-2" transform="translate(503.97 405.75)">Kein Bild hinterlegt</text><g id="Cogs"><path id="Cog" class="cls-3" d="M409.52,425.42,420.87,422V410.48L409.52,407a33.83,33.83,0,0,0-1.46-4.25,37,37,0,0,0-1.74-3.58l5.6-10.57-8-8.12-10.43,5.68a37.51,37.51,0,0,0-3.53-1.77,32.64,32.64,0,0,0-4.2-1.47l-3.41-11.51H371l-3.42,11.51a34.17,34.17,0,0,0-4.19,1.47,37.51,37.51,0,0,0-3.53,1.77l-10.43-5.68-8,8.12,5.6,10.57a37,37,0,0,0-1.74,3.58,32.77,32.77,0,0,0-1.46,4.25l-11.35,3.46V422l11.35,3.46a34.25,34.25,0,0,0,1.46,4.24,36,36,0,0,0,1.74,3.58l-5.6,10.58,8,8.11,10.43-5.68a35.24,35.24,0,0,0,3.53,1.77,34.73,34.73,0,0,0,4.19,1.48L371,461h11.32l3.41-11.5a33.37,33.37,0,0,0,7.73-3.25l10.43,5.68,8-8.11-5.6-10.58a36,36,0,0,0,1.74-3.58A34.25,34.25,0,0,0,409.52,425.42Zm-15-9.22a17.8,17.8,0,1,1-17.8-18A17.93,17.93,0,0,1,394.48,416.2Z"/><path id="Cog-2" data-name="Cog" class="cls-3" d="M452.08,374.13l8.19.83,3-7.37-6.38-5.3a27,27,0,0,0,.19-3.13,21,21,0,0,0-.19-2.76l6.38-5.3-3-7.38-8.19.84a23.66,23.66,0,0,0-1.81-2.1,24.1,24.1,0,0,0-2.31-2.08l.83-8.3L441.51,329l-5.22,6.47a26.42,26.42,0,0,0-3.09-.19,20.64,20.64,0,0,0-2.73.19L425.24,329,418,332.08l.83,8.3a23.89,23.89,0,0,0-2.07,1.84,26.61,26.61,0,0,0-2.05,2.34l-8.19-.84-3,7.38,6.38,5.3a26.8,26.8,0,0,0-.19,3.12,21.24,21.24,0,0,0,.19,2.77l-6.38,5.3,3,7.37,8.21-.83a27.19,27.19,0,0,0,1.81,2.1,28.34,28.34,0,0,0,2.31,2.08l-.82,8.3,7.27,3.06,5.23-6.47a26.25,26.25,0,0,0,3.08.19,20.52,20.52,0,0,0,2.73-.19l5.23,6.47,7.27-3.06-.82-8.33a23.7,23.7,0,0,0,2.07-1.84A26.76,26.76,0,0,0,452.08,374.13Zm-7.25-10a12.32,12.32,0,0,1-16.17,6.8A12.62,12.62,0,0,1,422,354.56a12.32,12.32,0,0,1,16.17-6.8A12.61,12.61,0,0,1,444.83,364.15Z"/><path id="Cog-3" data-name="Cog" class="cls-3" d="M410.22,325.11l4.9-1.51v-4.94l-4.9-1.5a12.49,12.49,0,0,0-.63-1.84,13.79,13.79,0,0,0-.75-1.55l2.42-4.56-3.46-3.5-4.5,2.45a12.81,12.81,0,0,0-1.53-.76,16.92,16.92,0,0,0-1.81-.64l-1.48-5h-4.9l-1.44,5a13.44,13.44,0,0,0-1.81.64,13.69,13.69,0,0,0-1.53.77l-4.49-2.46-3.47,3.51,2.43,4.56a13,13,0,0,0-.75,1.55,13.23,13.23,0,0,0-.64,1.83l-4.9,1.51v5l4.9,1.51a13.23,13.23,0,0,0,.64,1.83,13.93,13.93,0,0,0,.75,1.56l-2.43,4.55,3.47,3.51,4.49-2.46a13.69,13.69,0,0,0,1.53.77,13.44,13.44,0,0,0,1.81.64l1.49,5h4.87l1.48-5a13.1,13.1,0,0,0,1.82-.64,14.6,14.6,0,0,0,1.53-.77l4.49,2.46,3.46-3.51-2.42-4.6a13.79,13.79,0,0,0,.75-1.55A15.25,15.25,0,0,0,410.22,325.11Zm-6.47-4a7.68,7.68,0,1,1-7.67-7.78A7.73,7.73,0,0,1,403.75,321.15Z"/></g></svg>