<svg id="Ebene_1" data-name="Ebene 1" xmlns="http://www.w3.org/2000/svg" viewBox="0 0 970 750"><path d="M835.24,172.63H716.11v-17.5c0-18.86-38.06-34.13-56.92-34.13H590.66V247.33h68.53c18.86,0,56.92-15.27,56.92-34.13V195.4H835.24a11.39,11.39,0,0,0,0-22.77Z" transform="translate(10 10)" style="fill:none;stroke:#152936;stroke-miterlimit:10;stroke-width:8px"/><path d="M131.63,609.46A45.52,45.52,0,0,0,177.12,655H373a45.54,45.54,0,0,0,45.54-45.54h0V558.34H131.82Z" transform="translate(10 10)" style="fill:none;stroke:#152936;stroke-miterlimit:10;stroke-width:8px"/><path d="M353,432.23a34,34,0,0,0,27.38-24.13L398,343.18c0-10.05-7.92-18.69-19.12-22.41Z" transform="translate(10 10)" style="fill:none;stroke:#152936;stroke-miterlimit:10;stroke-width:8px"/><path d="M575.49,114.06,466.22,78.25A45.32,45.32,0,0,0,452,76H267.81V150.9a9.11,9.11,0,0,1-18.22,0V76H226.84V150.9a9.11,9.11,0,0,1-18.22,0V76H185.85V150.9a9.11,9.11,0,0,1-18.2,0V76h-28c-25.15,0-36.42,20.39-36.42,45.54V247.24a45.53,45.53,0,0,0,45.53,45.54h29.74a22.79,22.79,0,0,1,22.15,27.86L161.94,489.15a34.15,34.15,0,0,1-25.28,25.48,6.59,6.59,0,0,0-5,6.37v29H418.45V521.41A6.6,6.6,0,0,0,413,515L353.4,504.27A22.74,22.74,0,0,1,335,477.86q.1-.6.24-1.2L377.76,292.8H452a45.6,45.6,0,0,0,14.19-2.27l109.27-35.81a11.38,11.38,0,0,0,7.83-10.83V124.82A11.37,11.37,0,0,0,575.49,114.06ZM556.78,232.71H527.17v-21h29.61Zm0-38.06H527.17v-21h29.61Zm0-38H527.17v-21h29.61Z" transform="translate(10 10)" style="fill:none;stroke:#152936;stroke-miterlimit:10;stroke-width:8px"/><rect x="10" y="10" width="950" height="730" style="fill:none;stroke:#152936;stroke-miterlimit:10;stroke-width:20px"/><line x1="917.28" y1="46.05" x2="41.28" y2="700.05" style="fill:none;stroke:#152936;stroke-miterlimit:10;stroke-width:30px"/></svg>