<svg id="Ebene_1" data-name="Ebene 1" xmlns="http://www.w3.org/2000/svg" viewBox="0 0 970 750"><rect x="10" y="10" width="950" height="730" style="fill:none;stroke:#152936;stroke-miterlimit:10;stroke-width:20px"/><line x1="917.28" y1="46.05" x2="41.28" y2="700.05" style="fill:none;stroke:#152936;stroke-miterlimit:10;stroke-width:20px"/><g id="Layer_1" data-name="Layer 1"><path d="M469,288.62A1092.94,1092.94,0,0,0,618.74,279l11.57-1.71c12.6-1.92,23.14-10.44,23.14-23.14a23.27,23.27,0,0,0-21.08-23.17h0a163.28,163.28,0,0,0-90.12-146l-6.86,38.85-8.07,45.81a10.74,10.74,0,0,1-21.15-3.71l9.23-52.23,7.41-42.23a19.6,19.6,0,0,0-18.63-13.59H433.84a19.66,19.66,0,0,0-18.63,13.59l7.41,42.23,9.23,52.23a10.74,10.74,0,0,1-21.15,3.71l-8.07-45.81L395.9,84.87a163.18,163.18,0,0,0-90.11,146h0A23.31,23.31,0,0,0,284.64,254c0,12.61,10.57,21.23,23.22,23.14,3.78.58,7.57,1.14,11.5,1.64A1080.76,1080.76,0,0,0,469,288.62ZM686,509.87v159H773C773,604,738.86,546.25,686,509.87ZM585,471.7c-18.15,32.5-63.18,55.46-115.84,55.46s-97.62-23-115.85-55.46a234.46,234.46,0,0,0-39.3,8.5V669H624.16V480.07A235.2,235.2,0,0,0,585,471.7ZM252.2,669V509.87c-52.95,36.38-87.06,94.11-87.06,159ZM619.09,300.67A1115.75,1115.75,0,0,1,469,310.05a1115.3,1115.3,0,0,1-149.93-9.51,216.82,216.82,0,0,0,32.77,109.34c17.3,27,40.34,47.9,67,59.68a122.25,122.25,0,0,0,100.11,0c26.52-11.8,49.67-32.65,67-59.68a216.83,216.83,0,0,0,32.78-109.34Z" transform="translate(10 10)" style="fill:none;stroke:#152936;stroke-miterlimit:10;stroke-width:8px;fill-rule:evenodd"/></g></svg>