<svg id="Ebene_1" data-name="Ebene 1" xmlns="http://www.w3.org/2000/svg" viewBox="0 0 1416 844"><defs><style>.cls-1,.cls-4{fill:#fff;}.cls-1,.cls-3{stroke:#000;}.cls-1,.cls-2,.cls-3{stroke-miterlimit:10;}.cls-1{stroke-width:5px;}.cls-2{fill:#152936;stroke:#152936;}.cls-3{stroke-width:31px;}</style></defs><rect class="cls-1" x="2.5" y="2.5" width="1411" height="839" rx="99.56"/><path class="cls-2" d="M180.14,340.5"/><polygon class="cls-3" points="1237.72 206.6 1367.72 311.7 1165.57 428.8 963.41 545.9 1035.57 323.7 1107.72 101.5 1237.72 206.6"/><ellipse class="cls-3" cx="880.15" cy="646.82" rx="189.01" ry="58.86" transform="translate(-176.19 924.63) rotate(-51.05)"/><circle class="cls-4" cx="804.11" cy="740.88" r="27.13"/><rect class="cls-4" x="961.24" y="488.72" width="50.59" height="12.88" rx="6.44" transform="translate(530.65 -510.12) rotate(38.95)"/><path d="M291.83,179q0,35.88-23.07,62.25-20.38,23.57-57.25,24.78-7.08.26-38.94.25-6,0-18-.37t-18-.36q-3.54,0-3.54-2.81,0-13.42,1-40.35t1-40.34q0-14-1-42.05t-1-41.94q0-2.55,3.54-3,8.67-1,28.44-1,37.6,0,48.71,1.1Q242.63,98.1,259,109.81q15.38,11,24.29,30.77A91.54,91.54,0,0,1,291.83,179Zm-46.75,0q0-20.62-12.33-33.69-12.45-13.56-33-13.55-18.79,0-18.8,5,0,7.2-.24,21.67t-.25,21.67q0,7.08.25,21.3t.24,21.42q0,5.25,19.53,5.25,21.12,0,33.21-14Q245.07,200.76,245.08,179Z"/><path d="M435.51,154.61q0,9-.86,27.1t-.85,27.1q0,8.79.61,26.37t.61,26.24a3.9,3.9,0,0,1-3,4.16q-4.64,1.21-19.65,1.22a155.88,155.88,0,0,1-18.56-.74,3.44,3.44,0,0,1-2.93-2.93l-.73-7.32c-.41-3.74-1-5.62-1.71-5.62q1.71,0-12.33,8.31t-25.51,8.3q-32.35,0-38.33-29.18-2.69-13.55-2.69-39.31,0-27.83,4.52-43.94,1.33-5,5-5,5.63,0,17.09.13t17.09.12c2.52,0,3.79,1.06,3.79,3.17a19,19,0,0,1-.25,2.57A220.17,220.17,0,0,0,354.21,189q0,21.24,1.34,29.05,2.2,13.42,16,13.43,5.37,0,11.66-4.76t6.53-9.89q.24-4.51.25-61.28c0-2.69.2-4.27.61-4.76.49-.81,2-1.22,4.39-1.22q6,0,18,.12t18,.12c2.44,0,3.87.61,4.27,1.83A12.6,12.6,0,0,1,435.51,154.61Z"/><path d="M650.72,261.06q0,4.28-3.66,4.76t-18.07.49q-14.9,0-18.55-.73t-3.67-6q0-5.61.37-16.78t.37-16.79q0-21.36-.49-30.39-.74-14.52-13.8-14.53-5.73,0-11.41,4.82t-6.29,10.69q-.48,5.12-.48,30,0,5.75.36,17.4t.37,17.52c0,2.68-1.18,4-3.54,4h-37q-3.42,0-3.42-5,0-5.73.37-17.21t.36-17.34q0-4.52-.24-13.67t-.24-13.79q0-17.46-13.31-17.46-5.37,0-11.6,4.15-6.82,4.51-6.83,9.52,0,11.11.12,33.21t.12,33.08c0,2-.24,3.29-.73,3.78s-1.75.82-3.78,1q-5.51.48-17.34.49-7.7,0-17.45-.73c-2-.17-3.12-.45-3.48-.86s-.55-1.63-.55-3.66q0-9.76.12-29.24t.12-29.23a391.92,391.92,0,0,0-2.93-45.05,14.88,14.88,0,0,1-.24-2.19,2.77,2.77,0,0,1,1.71-2.81c1.79-.73,5.16-1.34,10.13-1.83q9.15-.86,10.86-1.1,1.23-.24,9.65-2.57a37.3,37.3,0,0,1,9.64-1.7c1.54,0,2.36,2.82,2.44,8.48s.41,8.48,1,8.48a12.05,12.05,0,0,0,2.81-1.71q11-8.53,17.33-11.71a46.48,46.48,0,0,1,20.39-4.52,39.76,39.76,0,0,1,20,5q9.9,5.63,12.82,15.75a51.39,51.39,0,0,1,17.82-14.77q11.36-6,22.1-6,16.11,0,26.24,7.45,11.47,8.41,11.48,24,0,6.48-.37,19.47T650,214.79q0,7.69.36,23.14T650.72,261.06Z"/><path d="M869,261.06q0,4.28-3.66,4.76t-18.07.49q-14.89,0-18.55-.73t-3.66-6q0-5.61.36-16.78t.37-16.79q0-21.36-.49-30.39-.74-14.52-13.79-14.53-5.75,0-11.42,4.82t-6.28,10.69q-.49,5.12-.49,30,0,5.75.36,17.4t.37,17.52c0,2.68-1.18,4-3.54,4h-37q-3.42,0-3.42-5,0-5.73.37-17.21t.37-17.34q0-4.52-.25-13.67t-.24-13.79q0-17.46-13.31-17.46-5.37,0-11.59,4.15-6.84,4.51-6.84,9.52,0,11.11.12,33.21t.12,33.08c0,2-.24,3.29-.73,3.78s-1.75.82-3.78,1q-5.49.48-17.34.49-7.68,0-17.45-.73c-2-.17-3.12-.45-3.48-.86s-.55-1.63-.55-3.66q0-9.76.12-29.24t.12-29.23a389.68,389.68,0,0,0-2.93-45.05,14.88,14.88,0,0,1-.24-2.19,2.77,2.77,0,0,1,1.71-2.81q2.69-1.09,10.13-1.83,9.15-.86,10.86-1.1,1.23-.24,9.65-2.57a37.3,37.3,0,0,1,9.64-1.7c1.55,0,2.36,2.82,2.44,8.48s.41,8.48,1,8.48a12.05,12.05,0,0,0,2.81-1.71q11-8.53,17.33-11.71a46.48,46.48,0,0,1,20.39-4.52,39.82,39.82,0,0,1,20,5q9.88,5.63,12.81,15.75a51.43,51.43,0,0,1,17.83-14.77q11.34-6,22.09-6,16.11,0,26.25,7.45,11.46,8.41,11.47,24,0,6.48-.37,19.47t-.36,19.47q0,7.69.36,23.14T869,261.06Z"/><path d="M1012.05,178.54q0,23.69-1.47,28.81-1.83,6.1-26.73,44.19-3.92,6-20.14,27.71-18,23.92-20.39,25.27-2.93,1.83-37.47,1.83-5.25,0-7.08-1.22-1.59-5-4-11.84-2-4.28-3.91-8.67-2.8-6.35-2.81-8.42c0-1.55.69-2.32,2.08-2.32q33.93,0,33.93-15.51,0-1.33-16.6-24.29-17.2-23.55-18.92-29.78-1-3.54-1-25.27,0-4.4.24-13.25t.24-13.24c0-2.12,1.35-3.18,4-3.18q6.23,0,18.86.37t18.86.37q2.57,0,2.56,3.78,0,3.42-.36,10.32t-.37,10.31q0,15.38.49,20.87.36,4.27,7.33,15.87,7.32,12.09,10.62,12.09,2.81,0,9.52-12,6.23-11.35,6.71-15.26a208.17,208.17,0,0,0,1.22-23.32c0-2.2-.2-5.53-.61-10s-.61-7.85-.61-10.13c0-1.54.86-2.32,2.56-2.32q6.23,0,18.62-.49t18.62-.49a4.21,4.21,0,0,1,4.27,3.18Q1012.05,158.15,1012.05,178.54Z"/><path d="M293.17,561.67c.17,2.2-1,3.29-3.41,3.29q-2.33,0-13.37-2.68t-13.61-3.66q-25.51,10-48.95,10-37.72,0-61.89-25.15Q128,518.7,128,480.86q0-38.7,23.2-64.21,23.92-26.37,62.13-26.37a86.91,86.91,0,0,1,34.91,7.08q17.7,7.81,27.83,22c1.39,2,2.08,3.34,2.08,4.16q0,3.9-10.93,17.51t-14.09,13.61c-.49,0-2.37-1.66-5.62-5a51.69,51.69,0,0,0-12.21-9.28,42.54,42.54,0,0,0-20.5-5q-18.31,0-29.06,13.67-10,12.57-10,31.37,0,19.9,10.38,31.49,10.74,12,30.39,12,12.47,0,27.84-6.23-.37-4-2.2-20.51a172.69,172.69,0,0,1-1.59-20.5c0-1.55.53-2.49,1.59-2.81a5.73,5.73,0,0,1,1.95-.25q3.54,0,10.68.68c4.76.44,8.37.67,10.81.67q3.9,0,11.72-.55t11.71-.55q3.06,0,3.06,4,0,5.85-.68,17.7t-.67,17.7q0,15.75,2.32,47.12Z"/><path d="M504.48,561.06q0,4.28-3.66,4.76t-18.07.49q-14.89,0-18.55-.73t-3.67-6q0-5.61.37-16.78t.37-16.79q0-21.36-.49-30.39Q460,481.11,447,481.1q-5.73,0-11.41,4.82t-6.29,10.69q-.48,5.11-.49,30,0,5.75.37,17.4t.37,17.52c0,2.68-1.18,4-3.54,4H389q-3.42,0-3.42-5,0-5.73.37-17.21t.36-17.34q0-4.51-.24-13.67t-.24-13.79q0-17.46-13.31-17.46-5.37,0-11.6,4.15-6.82,4.51-6.83,9.52,0,11.12.12,33.21t.12,33.08c0,2-.24,3.29-.73,3.78s-1.75.82-3.78,1q-5.51.48-17.34.49-7.69,0-17.45-.73c-2-.17-3.12-.45-3.48-.86s-.55-1.63-.55-3.66q0-9.76.12-29.24t.12-29.23a391.92,391.92,0,0,0-2.93-45,14.88,14.88,0,0,1-.24-2.19,2.77,2.77,0,0,1,1.71-2.81c1.79-.73,5.16-1.34,10.13-1.83q9.15-.85,10.86-1.1,1.22-.24,9.65-2.57a37.3,37.3,0,0,1,9.64-1.7c1.54,0,2.36,2.82,2.44,8.48s.41,8.48,1,8.48a12.05,12.05,0,0,0,2.81-1.71q11-8.54,17.33-11.71A46.44,46.44,0,0,1,394,444.36a39.77,39.77,0,0,1,20,5q9.9,5.63,12.82,15.75a51.39,51.39,0,0,1,17.82-14.77q11.35-6,22.1-6,16.11,0,26.24,7.45,11.47,8.42,11.48,24,0,6.48-.37,19.47t-.36,19.47q0,7.69.36,23.14T504.48,561.06Z"/><path d="M660,505.88q0,25.64-14.65,42.85Q629.72,567,604.58,567q-18.32,0-29.54-10.5a2.47,2.47,0,0,0-1.47-.73c-.81,0-1.57,1.51-2.26,4.52s-1.52,4.68-2.5,5q-2.09.61-34.79.61c-5.13,0-7.69-.93-7.69-2.81a16.5,16.5,0,0,1,.24-1.83q2.45-19.41,2.44-74,0-52.12-3.66-90.7l-.12-1.34c0-1.3,1.26-2,3.78-2.2q2.68-.12,21.24-1.83Q563.32,390,571.5,390q2.31,0,2.31,4,0,4.76-.61,12.57-.72,9.64-.85,12.69-.61,12.09-.61,33c0,2.53.65,3.79,2,3.79a2.45,2.45,0,0,0,1.83-1q11-11.72,28.81-11.72,26.73,0,41.75,18.19Q660,478.42,660,505.88Zm-44.19-1.34a24.94,24.94,0,0,0-6.23-17.15q-6.23-7-16.23-7-10.26,0-16.18,7t-5.92,17.39q0,10.75,5.74,17.34,6.1,7,16.6,7t16.48-7.21Q615.8,515.17,615.81,504.54Z"/><path d="M839.56,561.79c0,1.71-.36,2.77-1.1,3.17a9.64,9.64,0,0,1-3.42.62q-7.44.72-21,.73-19.17,0-22.52-.73t-3.36-3.3q0-9.64.92-29t.91-29c0-3.18-.9-5-2.68-5.5q-4.16-1-29.55-1t-29.78,1q-2.68.61-2.69,5.5,0,9.51.61,28.5t.61,28.5c0,2.44-1.09,3.87-3.29,4.28q-3.91.72-23,.73-16.49,0-21-.73-3.54-.62-3.54-3.79,0-13.18,1.28-39.79t1.29-39.92q0-14.16-1.22-42.54T675.87,397c0-1.79.85-2.69,2.56-2.69,2.52,0,6.33.12,11.41.37s8.89.36,11.42.36,6.53-.12,11.78-.36,9.17-.37,11.78-.37c1.38,0,2.07.73,2.07,2.2q0,9.15-1.34,27.4t-1.34,27.41c0,2.85.77,4.51,2.31,5q3.18,1,31.25,1,26.13,0,30.28-1c2-.49,2.93-2.15,2.93-5q0-8.79-.86-26.55t-.85-26.68q0-3.78,3.05-3.78,3.54,0,10.8.37c4.84.24,8.49.36,10.93.36s6-.12,10.8-.36,8.49-.37,10.93-.37,3.54,1,3.54,2.93q0,14-1.16,42.36T837,482.08q0,13.31,1.28,39.92T839.56,561.79Z"/><polygon class="cls-4" points="1128.38 70.28 1137.5 76.5 1122.36 88.9 1107.22 101.3 1113.24 82.68 1119.26 64.06 1128.38 70.28"/><polygon class="cls-4" points="1137.38 76.7 1146.5 82.92 1131.36 95.32 1116.22 107.72 1122.24 89.1 1128.26 70.48 1137.38 76.7"/><polygon class="cls-4" points="1155.88 89.49 1165 95.71 1149.86 108.11 1134.72 120.51 1140.74 101.89 1146.76 83.27 1155.88 89.49"/><polygon class="cls-4" points="1146.88 82.91 1156 89.14 1140.86 101.53 1125.71 113.93 1131.73 95.31 1137.76 76.69 1146.88 82.91"/><polygon class="cls-4" points="1163.63 96.09 1172.75 102.32 1157.61 114.72 1142.47 127.11 1148.49 108.49 1154.51 89.87 1163.63 96.09"/><polygon class="cls-4" points="1171.63 103.52 1180.75 109.74 1165.61 122.14 1150.46 134.54 1156.48 115.92 1162.51 97.3 1171.63 103.52"/><polygon class="cls-4" points="1187.13 115.31 1196.25 121.53 1181.11 133.93 1165.96 146.33 1171.99 127.71 1178.01 109.08 1187.13 115.31"/><polygon class="cls-4" points="1179.13 110.73 1188.25 116.95 1173.11 129.35 1157.96 141.75 1163.98 123.13 1170.01 104.51 1179.13 110.73"/><polygon class="cls-4" points="1193.95 126.5 1203.07 132.72 1187.93 145.12 1172.79 157.52 1178.81 138.9 1184.83 120.28 1193.95 126.5"/><polygon class="cls-4" points="1202.94 132.92 1212.07 139.15 1196.92 151.54 1181.78 163.94 1187.8 145.32 1193.82 126.7 1202.94 132.92"/><polygon class="cls-4" points="1221.45 145.71 1230.57 151.94 1215.42 164.33 1200.28 176.73 1206.3 158.11 1212.33 139.49 1221.45 145.71"/><polygon class="cls-4" points="1212.44 139.14 1221.57 145.36 1206.42 157.76 1191.28 170.16 1197.3 151.53 1203.32 132.91 1212.44 139.14"/><polygon class="cls-4" points="1229.19 152.32 1238.32 158.54 1223.17 170.94 1208.03 183.34 1214.05 164.72 1220.07 146.1 1229.19 152.32"/><polygon class="cls-4" points="1237.19 159.74 1246.32 165.96 1231.17 178.36 1216.03 190.76 1222.05 172.14 1228.07 153.52 1237.19 159.74"/><polygon class="cls-4" points="1252.69 171.53 1261.82 177.75 1246.67 190.15 1231.53 202.55 1237.55 183.93 1243.57 165.31 1252.69 171.53"/><polygon class="cls-4" points="1244.69 166.95 1253.81 173.18 1238.67 185.57 1223.53 197.97 1229.55 179.35 1235.57 160.73 1244.69 166.95"/><polygon class="cls-4" points="1259.91 178.5 1269.03 184.72 1253.89 197.12 1238.75 209.51 1244.77 190.89 1250.79 172.27 1259.91 178.5"/><polygon class="cls-4" points="1267.91 185.92 1277.03 192.14 1261.89 204.54 1246.75 216.94 1252.77 198.32 1258.79 179.7 1267.91 185.92"/><polygon class="cls-4" points="1283.41 197.71 1292.53 203.93 1277.39 216.33 1262.25 228.73 1268.27 210.11 1274.29 191.48 1283.41 197.71"/><polygon class="cls-4" points="1275.41 193.13 1284.53 199.35 1269.39 211.75 1254.25 224.15 1260.27 205.53 1266.29 186.91 1275.41 193.13"/><polygon class="cls-4" points="1290.23 208.9 1299.35 215.12 1284.21 227.52 1269.07 239.92 1275.09 221.3 1281.11 202.68 1290.23 208.9"/><polygon class="cls-4" points="1299.23 215.32 1308.35 221.55 1293.21 233.94 1278.07 246.34 1284.09 227.72 1290.11 209.1 1299.23 215.32"/><polygon class="cls-4" points="1308.73 221.53 1317.85 227.76 1302.71 240.16 1287.57 252.56 1293.59 233.93 1299.61 215.31 1308.73 221.53"/><polygon class="cls-4" points="1318.91 228.5 1328.03 234.72 1312.89 247.12 1297.75 259.51 1303.77 240.89 1309.79 222.27 1318.91 228.5"/><polygon class="cls-4" points="1326.91 235.92 1336.03 242.14 1320.89 254.54 1305.75 266.94 1311.77 248.32 1317.79 229.7 1326.91 235.92"/><polygon class="cls-4" points="1342.41 247.71 1351.53 253.93 1336.39 266.33 1321.25 278.73 1327.27 260.11 1333.29 241.48 1342.41 247.71"/><polygon class="cls-4" points="1334.41 243.13 1343.53 249.35 1328.39 261.75 1313.25 274.15 1319.27 255.53 1325.29 236.91 1334.41 243.13"/><polygon class="cls-4" points="1349.23 258.9 1358.35 265.12 1343.21 277.52 1328.07 289.92 1334.09 271.3 1340.11 252.68 1349.23 258.9"/><polygon class="cls-4" points="1358.23 265.32 1367.35 271.55 1352.21 283.94 1337.07 296.34 1343.09 277.72 1349.11 259.1 1358.23 265.32"/><polygon class="cls-4" points="1367.73 271.54 1376.85 277.76 1361.71 290.16 1346.57 302.56 1352.59 283.93 1358.61 265.31 1367.73 271.54"/><polygon class="cls-4" points="1386.91 284.71 1396.03 290.93 1380.89 303.33 1365.75 315.73 1371.77 297.11 1377.79 278.48 1386.91 284.71"/><polygon class="cls-4" points="1377.91 278.13 1387.03 284.35 1371.89 296.75 1356.75 309.15 1362.77 290.53 1368.79 271.91 1377.91 278.13"/></svg>