<?xml version="1.0" encoding="utf-8"?>
<!-- Generator: Adobe Illustrator 24.3.0, SVG Export Plug-In . SVG Version: 6.00 Build 0)  -->
<svg version="1.1" id="Ebene_1" xmlns="http://www.w3.org/2000/svg" xmlns:xlink="http://www.w3.org/1999/xlink" x="0px" y="0px"
	 viewBox="0 0 1939 1100" style="enable-background:new 0 0 1939 1100;" xml:space="preserve">
<style type="text/css">
	.st0{opacity:0.9;fill:none;enable-background:new    ;}
	.st1{fill:#06151D;}
	.st2{fill:#F06B23;}
	.st3{fill:#FFFFFF;}
</style>
<rect x="3.5" y="3.5" class="st0" width="1932" height="1093"/>
<ellipse id="Shadow" class="st1" cx="961.7" cy="668" rx="175.8" ry="12.7"/>
<g id="Cogs">
	<path id="Cog" class="st2" d="M988.5,528.9l26.4-8.4v-27.8l-26.4-8.4c-0.9-3.5-2-6.9-3.4-10.3c-1.2-3-2.5-5.9-4-8.7l13-25.6
		L975.5,420l-24.3,13.8c-2.7-1.6-5.4-3-8.2-4.3c-3.2-1.4-6.4-2.6-9.8-3.6l-8-27.9H899l-8,27.9c-3.3,1-6.6,2.2-9.8,3.6
		c-2.8,1.3-5.6,2.7-8.2,4.3L848.7,420l-18.6,19.7l13,25.6c-1.5,2.8-2.9,5.7-4,8.7c-1.4,3.4-2.5,6.8-3.4,10.3l-26.4,8.4v27.8
		l26.4,8.4c1.7,6.6,4.2,13,7.5,19l-13,25.6l18.6,19.7l24.3-13.8c2.7,1.6,5.4,3,8.2,4.3c3.2,1.4,6.4,2.6,9.8,3.6l8,27.9h26.3l8-27.9
		c3.3-1,6.6-2.2,9.8-3.6c2.8-1.3,5.6-2.7,8.2-4.3l24.2,13.8l18.6-19.7l-13-25.6c1.5-2.8,2.8-5.7,4-8.7
		C986.5,535.8,987.6,532.4,988.5,528.9z M953.5,506.6c0,24.1-18.5,43.7-41.4,43.7s-41.4-19.5-41.4-43.7s18.5-43.7,41.4-43.7
		S953.5,482.4,953.5,506.6L953.5,506.6z"/>
	<path id="Cog-2" class="st2" d="M1087.6,404.6l19.1,2l7-17.9l-14.8-12.8c0.3-2.5,0.4-5,0.4-7.6c0-2.2-0.2-4.5-0.4-6.7l14.8-12.8
		l-7-17.9l-19.1,2c-1.3-1.8-2.7-3.5-4.2-5.1c-1.7-1.8-3.5-3.5-5.4-5l1.9-20.1l-16.9-7.4l-12.2,15.7c-2.4-0.3-4.8-0.5-7.2-0.5
		c-2.1,0-4.3,0.2-6.4,0.5l-12.2-15.7l-16.9,7.4l1.9,20.1c-1.7,1.4-3.3,2.9-4.8,4.5c-1.7,1.8-3.3,3.7-4.8,5.7l-19.1-2l-7,17.9
		l14.8,12.8c-0.3,2.5-0.4,5-0.4,7.6c0,2.2,0.2,4.5,0.4,6.7l-14.9,12.8l7,17.9l19.1-2c1.3,1.8,2.7,3.5,4.2,5.1c1.7,1.8,3.5,3.4,5.4,5
		l-1.9,20.1l16.9,7.4l12.2-15.7c2.4,0.3,4.8,0.5,7.2,0.5c2.1,0,4.2-0.2,6.3-0.5l12.2,15.7l16.9-7.4l-1.9-20.2
		c1.7-1.4,3.3-2.9,4.8-4.5C1084.5,408.4,1086.1,406.5,1087.6,404.6z M1070.7,380.4c-6.1,15.5-23,22.9-37.6,16.5
		s-21.7-24.2-15.6-39.7s23-22.9,37.6-16.5S1076.8,364.9,1070.7,380.4z"/>
	<path id="Cog-3" class="st2" d="M990.2,285.8l11.4-3.6v-12l-11.4-3.6c-0.8-2.9-1.8-5.6-3.2-8.2l5.6-11l-8.1-8.6l-10.5,6
		c-1.1-0.7-2.3-1.3-3.6-1.9c-1.4-0.6-2.8-1.1-4.2-1.6l-3.5-12h-11.4l-3.3,12.1c-1.4,0.4-2.9,0.9-4.2,1.6c-1.2,0.5-2.4,1.2-3.6,1.9
		l-10.5-6l-8,8.5l5.6,11c-0.7,1.2-1.2,2.5-1.8,3.8c-0.6,1.4-1.1,2.9-1.5,4.5l-11.4,3.6v12l11.4,3.6c0.8,2.9,1.8,5.6,3.2,8.2l-5.6,11
		l8,8.5l10.5-6c1.1,0.7,2.3,1.3,3.6,1.9c1.4,0.6,2.8,1.2,4.2,1.6l3.5,12h11.3l3.5-12c1.4-0.4,2.8-0.9,4.2-1.5
		c1.2-0.5,2.4-1.2,3.6-1.9l10.5,6l8-8.5l-5.6-11.2c0.7-1.2,1.2-2.5,1.8-3.8C989.2,288.8,989.7,287.3,990.2,285.8z M975.1,276.1
		c0,10.4-8,18.9-17.9,18.9s-17.9-8.5-17.9-18.9s8-18.9,17.9-18.9S975.1,265.7,975.1,276.1z"/>
</g>
<path class="st3" d="M472.4,799.8h14.4v105.3h-14.4V799.8z"/>
<path class="st3" d="M502.7,830h13.9v7.4c4.9-4.7,11-8.5,18.3-8.5c9,0,11.3,8.1,11.3,15.3v60.8h-13.9v-56.8c0-5.3-1.2-8.5-6-8.5
	c-3.1,0-6.6,2.1-9.8,4.7v60.6h-13.9V830z"/>
<path class="st3" d="M560.2,799.8h13.9v38c5.1-4.8,11.2-8.8,18.8-8.8c8.8,0,11.2,8.1,11.2,15.3v60.8h-13.9v-56.9
	c0-5.3-1.2-8.5-6-8.5c-3.3,0-7,2.2-10.1,4.9v60.3h-13.9V799.8z"/>
<path class="st3" d="M616.1,888.8c0-18.7,13.5-24.2,29.6-30.5v-5.3c0-9.1-1-13.5-7.5-13.5c-5.7,0-7.9,4.2-7.9,10.7v3.8l-13.7-0.5
	c0.3-16.6,7.3-24.3,22.6-24.3c14.8,0,20.5,8.3,20.5,23.8v34.3c0,6,0.5,12.1,1.3,18.1h-12.8c-0.5-2.7-1.4-7.5-1.8-11
	c-1.8,5.8-6.6,12.1-15.2,12.1C622.3,906.2,616.1,897.6,616.1,888.8z M645.7,888v-21.3c-8.6,4.9-15.7,9.1-15.7,17.8
	c0,6.1,2.3,9.8,6.6,9.8C640.6,894.2,644.5,889.9,645.7,888z"/>
<path class="st3" d="M674.3,799.8h13.9v105.3h-13.9V799.8z"/>
<path class="st3" d="M706.5,888.2v-49h-7.9V830h7.9v-22h14v22h12v9.2h-12v48.1c0,5.8,1.4,8.2,6.9,8.2c1.7,0,3.4-0.2,5.1-0.4v10.3
	c-3.2,0.5-6.4,0.8-9.6,0.8C711,906.2,706.5,899.2,706.5,888.2z"/>
<path class="st3" d="M773.5,804.3h13.9v14.6h-13.9V804.3z M773.5,830h13.9v75.1h-13.9V830z"/>
<path class="st3" d="M802.3,830h13.9v7.4c4.9-4.7,11-8.5,18.3-8.5c9,0,11.3,8.1,11.3,15.3v60.8H832v-56.8c0-5.3-1.2-8.5-6-8.5
	c-3.1,0-6.6,2.1-9.8,4.7v60.6h-13.9V830z"/>
<path class="st3" d="M890.3,799.8h24.2c19,0,28.1,8.3,28.1,26.4c0,13-4.8,20.8-15.1,22.2c12.6,3,17.9,11.7,17.9,26.7
	c0,18.2-8.2,30-27,30h-28.1V799.8z M913.8,843.8c12.3,0,16.1-5.1,16.1-17.5c0-14.4-6.4-15.5-21.3-15.5H905v33L913.8,843.8z
	 M914.9,894.6c13.1,0,16.5-5.8,16.5-19.5c0-13.1-4.8-20.2-17.7-20.2H905v39.7H914.9z"/>
<path class="st3" d="M955.9,876.2V859c0-19.9,4.9-30,22.2-30c18.8,0,21.3,12.2,21.3,32.8v6.1h-29.6v15.1c0,9.1,2.5,13,8.5,13
	c6.2,0,7.5-4.8,7.5-12.3V879h13.5v2.9c0,15.1-5.8,24.3-21.2,24.3C960.4,906.2,955.9,895.8,955.9,876.2z M985.8,860.3v-6.8
	c0-9.2-0.9-14.3-7.8-14.3s-8.2,4-8.2,17v4L985.8,860.3z"/>
<path class="st3" d="M1010.5,888.8c0-18.7,13.5-24.2,29.6-30.5v-5.3c0-9.1-1-13.5-7.5-13.5c-5.7,0-7.9,4.2-7.9,10.7v3.8l-13.8-0.5
	c0.3-16.6,7.3-24.3,22.6-24.3c14.8,0,20.5,8.3,20.5,23.8v34.3c0,6,0.5,12.1,1.3,18.1h-12.7c-0.5-2.7-1.4-7.5-1.8-11
	c-1.8,5.8-6.6,12.1-15.2,12.1C1016.7,906.2,1010.5,897.6,1010.5,888.8z M1040.1,888v-21.3c-8.6,4.9-15.7,9.1-15.7,17.8
	c0,6.1,2.3,9.8,6.6,9.8C1035,894.2,1038.9,889.9,1040.1,888L1040.1,888z"/>
<path class="st3" d="M1067.8,830h13.9v10.7c5.5-9.1,11-11.6,16.6-11.6c0.7,0,1.5,0,2.2,0.1v15.3c-2.4-1-5-1.5-7.7-1.6
	c-4.3,0-7.7,1.6-11.2,7.3v54.9h-13.9V830z"/>
<path class="st3" d="M1123.3,899.7v5.5h-13.9V799.8h13.9V836c3.3-3.8,7.8-7,14.2-7c15.7,0,17.2,19.2,17.2,28.2v18.2
	c0,16-3.8,30.8-18.6,30.8C1130.7,906.2,1126.4,903.1,1123.3,899.7z M1140.7,875.4v-18.2c0-9.4-0.9-17.3-8.1-17.3
	c-3.6,0-6.9,1.8-9.4,3.8v48.2c2.8,2.2,6.3,3.4,9.9,3.4C1140.3,895.3,1140.7,886.4,1140.7,875.4z"/>
<path class="st3" d="M1165.8,876.2V859c0-19.9,4.9-30,22.2-30c18.8,0,21.3,12.2,21.3,32.8v6.1h-29.6v15.1c0,9.1,2.5,13,8.4,13
	c6.2,0,7.5-4.8,7.5-12.3V879h13.5v2.9c0,15.1-5.8,24.3-21.2,24.3C1170.4,906.2,1165.8,895.8,1165.8,876.2z M1195.7,860.3v-6.8
	c0-9.2-0.9-14.3-7.8-14.3s-8.2,4-8.2,17v4L1195.7,860.3z"/>
<path class="st3" d="M1222.9,804.3h13.9v14.6h-13.9V804.3z M1222.9,830h13.9v75.1h-13.9V830z"/>
<path class="st3" d="M1255.5,888.2v-49h-7.9V830h7.9v-22h13.9v22h12.1v9.2h-12.1v48.1c0,5.8,1.4,8.2,6.9,8.2c1.7,0,3.4-0.2,5.1-0.4
	v10.3c-3.2,0.5-6.4,0.8-9.6,0.8C1259.9,906.2,1255.5,899.2,1255.5,888.2z"/>
<path class="st3" d="M1291.3,890.8V830h13.9v56.7c0,5.3,1.2,8.6,6,8.6c3.1,0,6.6-2.1,9.8-4.7V830h13.9v75.1h-13.9v-7.4
	c-4.9,4.7-11.1,8.5-18.3,8.5C1293.6,906.2,1291.3,898.1,1291.3,890.8z"/>
<path class="st3" d="M1349,830h13.9v7.4c4.9-4.7,11-8.5,18.3-8.5c9,0,11.3,8.1,11.3,15.3v60.8h-13.9v-56.8c0-5.3-1.2-8.5-6-8.5
	c-3.1,0-6.6,2.1-9.8,4.7v60.6H1349L1349,830z"/>
<path class="st3" d="M1401.6,914.2c0-7.2,5.2-11.8,10.8-14.4c-4.9-1.4-7.3-4.7-7.3-8.1c0-5.6,3.1-9,8.3-13.7
	c-5.7-4.3-8.7-10.4-8.7-22.4c0-17.5,7.3-26.8,21.2-26.8c8.1,0,12.9,2.9,15.5,8.3c2.8-3.3,6.2-5.9,10.1-7.8l2.1-0.9l3.5,9
	c-3.4,0.7-11.4,3.6-12.7,4.8c1.5,4.5,2.2,9.1,2.3,13.8c0,15.3-5.1,26-20.8,26c-2.4,0-4.8-0.3-7.2-0.9c-1,1.6-2.5,3.8-2.5,5.7
	s1.8,3,6.2,3.4l11.7,1c11.8,1,17.4,7,17.4,18.3c0,12.3-8.6,18.7-26.1,18.7C1411.9,928.4,1401.6,924.4,1401.6,914.2z M1441,910.1
	c0-4.5-2.1-6.9-10.3-7.7l-11.8-1c-2.9,2.9-5.6,5.7-5.6,9.4c0,4.5,3.1,6.8,13.3,6.8C1436.5,917.5,1441,915.3,1441,910.1z
	 M1434.9,855.7c0-10.5-1-17.2-8.8-17.2s-9.2,6.2-9.2,17.2c0,9.4,1.3,16.6,9.1,16.6S1434.9,866.3,1434.9,855.7z"/>
</svg>
