<svg id="Ebene_1" data-name="Ebene 1" xmlns="http://www.w3.org/2000/svg" viewBox="0 0 1939 1100"><defs><style>.cls-1{fill:#152936;stroke:#f06b23;stroke-miterlimit:10;stroke-width:7px;opacity:0.9;isolation:isolate;}.cls-2{fill:#06151d;}.cls-3{fill:#f06b23;}.cls-4{fill:#fff;}</style></defs><rect class="cls-1" x="3.5" y="3.5" width="1932" height="1093"/><ellipse id="Shadow" class="cls-2" cx="961.7" cy="667.95" rx="175.8" ry="12.71"/><g id="Cogs"><path id="Cog" class="cls-3" d="M985,525.39l26.4-8.39V489.17L985,480.79a85,85,0,0,0-3.4-10.3,87.25,87.25,0,0,0-4-8.68l13-25.62L972,416.52l-24.27,13.76A82.29,82.29,0,0,0,939.5,426a73.42,73.42,0,0,0-9.75-3.58l-8-27.88H895.46l-8,27.88a76.89,76.89,0,0,0-9.75,3.58,82.13,82.13,0,0,0-8.22,4.28l-24.26-13.76L826.6,436.19l13,25.62a86.6,86.6,0,0,0-4.05,8.68,83.31,83.31,0,0,0-3.4,10.3l-26.4,8.38V517l26.4,8.39a87,87,0,0,0,7.45,19L826.6,570l18.63,19.66,24.26-13.76a82.13,82.13,0,0,0,8.22,4.28,73.42,73.42,0,0,0,9.75,3.58l8,27.89H921.8l8-27.89a76.89,76.89,0,0,0,9.75-3.58,80.9,80.9,0,0,0,8.21-4.28L972,589.65,990.61,570l-13-25.63a87.25,87.25,0,0,0,4-8.68A85,85,0,0,0,985,525.39Zm-35-22.33c0,24.12-18.52,43.73-41.42,43.73s-41.41-19.55-41.41-43.73,18.51-43.74,41.41-43.74S950,478.93,950,503.06Z" transform="translate(3.5 3.5)"/><path id="Cog-2" class="cls-3" d="M1084.06,401.07l19.06,2,7-17.88-14.85-12.84a71.19,71.19,0,0,0,.44-7.58,55.86,55.86,0,0,0-.44-6.71l14.85-12.84-7-17.88-19.06,2a57.25,57.25,0,0,0-4.22-5.09,56.45,56.45,0,0,0-5.37-5l1.92-20.14-16.93-7.4-12.16,15.68a59.26,59.26,0,0,0-7.17-.47,46.69,46.69,0,0,0-6.36.47l-12.16-15.68-16.87,7.4,1.92,20.14a56.32,56.32,0,0,0-4.82,4.45,64.44,64.44,0,0,0-4.77,5.67l-19.06-2-7,17.88,14.84,12.84a71.19,71.19,0,0,0-.44,7.58,55.86,55.86,0,0,0,.44,6.71L971,385.22l7,17.88,19.12-2a60.14,60.14,0,0,0,4.21,5.09,63.43,63.43,0,0,0,5.37,5l-1.92,20.13,16.93,7.4L1033.87,423a59.42,59.42,0,0,0,7.18.47,46.43,46.43,0,0,0,6.35-.47l12.16,15.68,16.93-7.4-1.92-20.19a56.44,56.44,0,0,0,4.82-4.46A65.65,65.65,0,0,0,1084.06,401.07Zm-16.87-24.18c-6.08,15.5-23,22.91-37.63,16.49s-21.7-24.24-15.62-39.74,23-22.91,37.64-16.49,21.69,24.24,15.61,39.74Z" transform="translate(3.5 3.5)"/><path id="Cog-3" class="cls-3" d="M986.66,282.25l11.4-3.64v-12L986.66,263a38.41,38.41,0,0,0-3.23-8.21l5.64-11L981,235.22l-10.46,6a31.59,31.59,0,0,0-3.56-1.85,35,35,0,0,0-4.22-1.56l-3.45-12h-11.4l-3.34,12.09a28.45,28.45,0,0,0-4.22,1.56,31.59,31.59,0,0,0-3.56,1.85l-10.46-6-8.05,8.5,5.64,11.05a32.87,32.87,0,0,0-1.75,3.76,30.67,30.67,0,0,0-1.48,4.46l-11.4,3.64v12l11.4,3.65a38.41,38.41,0,0,0,3.23,8.21l-5.64,11.05,8.05,8.51,10.46-6a31.59,31.59,0,0,0,3.56,1.85,28.87,28.87,0,0,0,4.22,1.56l3.45,12h11.34l3.45-12A28.45,28.45,0,0,0,967,306a29.28,29.28,0,0,0,3.56-1.85l10.47,6,8-8.51-5.64-11.16a34.67,34.67,0,0,0,1.75-3.76A41.66,41.66,0,0,0,986.66,282.25Zm-15.06-9.6c0,10.41-8,18.86-17.86,18.86s-17.86-8.45-17.86-18.86,8-18.86,17.86-18.86S971.6,262.24,971.6,272.65Z" transform="translate(3.5 3.5)"/></g><path class="cls-4" d="M468.91,796.34h14.43v105.3H468.91Z" transform="translate(3.5 3.5)"/><path class="cls-4" d="M499.2,826.5h13.91v7.41c4.94-4.68,11-8.45,18.33-8.45,9,0,11.31,8.06,11.31,15.34v60.84H528.84V844.83c0-5.33-1.17-8.45-6-8.45-3.12,0-6.63,2.08-9.75,4.68v60.58H499.2Z" transform="translate(3.5 3.5)"/><path class="cls-4" d="M556.66,796.34h13.91v38c5.07-4.81,11.18-8.84,18.85-8.84,8.84,0,11.18,8.06,11.18,15.34v60.84H586.69V844.83c0-5.33-1.17-8.45-6-8.45-3.25,0-7,2.21-10.14,4.94v60.32H556.66Z" transform="translate(3.5 3.5)"/><path class="cls-4" d="M612.56,885.26c0-18.72,13.52-24.18,29.64-30.55v-5.33c0-9.1-1-13.52-7.54-13.52-5.72,0-7.93,4.16-7.93,10.66v3.77L613,849.77c.26-16.64,7.28-24.31,22.62-24.31,14.82,0,20.54,8.32,20.54,23.79v34.32a134.85,134.85,0,0,0,1.3,18.07H644.67c-.52-2.73-1.43-7.54-1.82-11-1.82,5.85-6.63,12.09-15.21,12.09C618.8,902.68,612.56,894.1,612.56,885.26Zm29.64-.78V863.16c-8.58,4.94-15.73,9.1-15.73,17.81,0,6.11,2.34,9.75,6.63,9.75C637.13,890.72,641,886.43,642.2,884.48Z" transform="translate(3.5 3.5)"/><path class="cls-4" d="M670.8,796.34h13.91v105.3H670.8Z" transform="translate(3.5 3.5)"/><path class="cls-4" d="M703,884.74v-49h-7.93V826.5H703v-22h14v22h12v9.23H717v48.1c0,5.85,1.43,8.19,6.89,8.19a39.06,39.06,0,0,0,5.07-.39V901.9a59.64,59.64,0,0,1-9.62.78C707.46,902.68,703,895.66,703,884.74Z" transform="translate(3.5 3.5)"/><path class="cls-4" d="M770,800.76h13.9v14.56H770Zm0,25.74h13.9v75.14H770Z" transform="translate(3.5 3.5)"/><path class="cls-4" d="M798.84,826.5h13.91v7.41c4.94-4.68,11-8.45,18.33-8.45,9,0,11.32,8.06,11.32,15.34v60.84H828.48V844.83c0-5.33-1.17-8.45-6-8.45-3.12,0-6.63,2.08-9.75,4.68v60.58H798.84Z" transform="translate(3.5 3.5)"/><path class="cls-4" d="M886.85,796.34H911c19,0,28.08,8.32,28.08,26.39,0,13-4.81,20.8-15.08,22.23,12.61,3,17.94,11.7,17.94,26.65,0,18.2-8.19,30-27,30H886.85Zm23.4,43.94c12.35,0,16.12-5.07,16.12-17.55,0-14.43-6.37-15.47-21.32-15.47h-3.51v33Zm1.17,50.83c13.13,0,16.51-5.85,16.51-19.5,0-13.13-4.81-20.15-17.68-20.15h-8.71v39.65Z" transform="translate(3.5 3.5)"/><path class="cls-4" d="M952.37,872.65V855.49c0-19.89,4.94-30,22.23-30,18.85,0,21.32,12.22,21.32,32.76v6.11H966.28v15.08c0,9.1,2.47,13,8.45,13,6.24,0,7.54-4.81,7.54-12.35v-4.55h13.52v2.86c0,15.08-5.85,24.31-21.19,24.31C956.92,902.68,952.37,892.28,952.37,872.65Zm29.9-15.86V850c0-9.23-.91-14.3-7.8-14.3s-8.19,4-8.19,17v4Z" transform="translate(3.5 3.5)"/><path class="cls-4" d="M1007,885.26c0-18.72,13.52-24.18,29.64-30.55v-5.33c0-9.1-1-13.52-7.54-13.52-5.72,0-7.93,4.16-7.93,10.66v3.77l-13.78-.52c.26-16.64,7.28-24.31,22.62-24.31,14.82,0,20.54,8.32,20.54,23.79v34.32a134.85,134.85,0,0,0,1.3,18.07h-12.74c-.52-2.73-1.43-7.54-1.82-11-1.82,5.85-6.63,12.09-15.21,12.09C1013.21,902.68,1007,894.1,1007,885.26Zm29.64-.78V863.16c-8.58,4.94-15.73,9.1-15.73,17.81,0,6.11,2.34,9.75,6.63,9.75,4,0,7.9-4.29,9.07-6.24Z" transform="translate(3.5 3.5)"/><path class="cls-4" d="M1064.3,826.5h13.91v10.66c5.46-9.1,11-11.57,16.64-11.57a14.82,14.82,0,0,1,2.21.13v15.34a23.15,23.15,0,0,0-7.67-1.56c-4.29,0-7.67,1.56-11.18,7.28v54.86H1064.3Z" transform="translate(3.5 3.5)"/><path class="cls-4" d="M1119.81,896.18v5.46H1105.9V796.34h13.91v36.14c3.25-3.77,7.8-7,14.17-7,15.73,0,17.16,19.24,17.16,28.21v18.2c0,16-3.77,30.81-18.59,30.81C1127.22,902.68,1122.93,899.56,1119.81,896.18Zm17.42-24.31v-18.2c0-9.36-.91-17.29-8.06-17.29-3.64,0-6.89,1.82-9.36,3.77v48.23a15.87,15.87,0,0,0,9.88,3.38c7.15,0,7.54-8.84,7.54-19.89Z" transform="translate(3.5 3.5)"/><path class="cls-4" d="M1162.31,872.65V855.49c0-19.89,4.94-30,22.24-30,18.85,0,21.32,12.22,21.32,32.76v6.11h-29.64v15.08c0,9.1,2.47,13,8.45,13,6.24,0,7.54-4.81,7.54-12.35v-4.55h13.52v2.86c0,15.08-5.85,24.31-21.19,24.31C1166.87,902.68,1162.31,892.28,1162.31,872.65Zm29.91-15.86V850c0-9.23-.91-14.3-7.8-14.3s-8.19,4-8.19,17v4Z" transform="translate(3.5 3.5)"/><path class="cls-4" d="M1219.38,800.76h13.91v14.56h-13.91Zm0,25.74h13.91v75.14h-13.91Z" transform="translate(3.5 3.5)"/><path class="cls-4" d="M1252,884.74v-49h-7.93V826.5H1252v-22h13.91v22H1278v9.23h-12.09v48.1c0,5.85,1.43,8.19,6.89,8.19a39.06,39.06,0,0,0,5.07-.39V901.9a59.64,59.64,0,0,1-9.62.78C1256.43,902.68,1252,895.66,1252,884.74Z" transform="translate(3.5 3.5)"/><path class="cls-4" d="M1287.76,887.34V826.5h13.91v56.68c0,5.33,1.17,8.58,6,8.58,3.12,0,6.63-2.08,9.75-4.68V826.5h13.91v75.14H1317.4v-7.41c-4.94,4.68-11.05,8.45-18.33,8.45C1290.1,902.68,1287.76,894.62,1287.76,887.34Z" transform="translate(3.5 3.5)"/><path class="cls-4" d="M1345.48,826.5h13.91v7.41c4.94-4.68,11-8.45,18.33-8.45,9,0,11.31,8.06,11.31,15.34v60.84h-13.91V844.83c0-5.33-1.17-8.45-6-8.45-3.12,0-6.63,2.08-9.75,4.68v60.58h-13.91Z" transform="translate(3.5 3.5)"/><path class="cls-4" d="M1398.13,910.74c0-7.15,5.2-11.83,10.79-14.43-4.94-1.43-7.28-4.68-7.28-8.06,0-5.59,3.12-9,8.32-13.65-5.72-4.29-8.71-10.4-8.71-22.36,0-17.55,7.28-26.78,21.19-26.78,8.06,0,12.87,2.86,15.47,8.32a30.45,30.45,0,0,1,10.14-7.8l2.08-.91,3.51,9c-3.38.65-11.44,3.64-12.74,4.81a47.81,47.81,0,0,1,2.34,13.78c0,15.34-5.07,26-20.8,26a32.49,32.49,0,0,1-7.15-.91c-1,1.56-2.47,3.77-2.47,5.72s1.82,3,6.24,3.38l11.7,1c11.83,1,17.42,7,17.42,18.33,0,12.35-8.58,18.72-26.13,18.72C1408.4,924.91,1398.13,920.88,1398.13,910.74Zm39.39-4.16c0-4.55-2.08-6.89-10.27-7.67l-11.83-1c-2.86,2.86-5.59,5.72-5.59,9.36,0,4.55,3.12,6.76,13.26,6.76C1433,914,1437.52,911.78,1437.52,906.58Zm-6.11-54.34c0-10.53-1-17.16-8.84-17.16s-9.23,6.24-9.23,17.16c0,9.36,1.3,16.64,9.1,16.64S1431.41,862.77,1431.41,852.24Z" transform="translate(3.5 3.5)"/></svg>