<?xml version="1.0" encoding="utf-8"?>
<!-- Generator: Adobe Illustrator 24.2.1, SVG Export Plug-In . SVG Version: 6.00 Build 0)  -->
<svg version="1.1" id="Ebene_1" xmlns="http://www.w3.org/2000/svg" xmlns:xlink="http://www.w3.org/1999/xlink" x="0px" y="0px"
	 viewBox="0 0 751.77 200.57" style="enable-background:new 0 0 751.77 200.57;" xml:space="preserve">
<style type="text/css">
	.st0{fill:#ED6B26;}
	.st1{fill:#FEF9F8;}
</style>
<rect y="9.37" class="st0" width="42.54" height="178.03"/>
<ellipse class="st0" cx="65.01" cy="98.38" rx="22.47" ry="21.15"/>
<polygon class="st0" points="94.81,66.58 65.01,9.52 124.29,9.37 "/>
<polygon class="st0" points="94.99,130.13 124.35,187.4 65.06,187.14 "/>
<g>
	<path class="st1" d="M154.87,12.35h40.82v10.92h-26.13v34.84h21.19v10.4h-21.19v38.61h26.39v10.53h-41.08V12.35z"/>
	<path class="st1" d="M224.42,12.35h14.17l22.49,105.3h-13.91l-4.81-26.52h-21.45l-5.07,26.52h-13.78L224.42,12.35z M240.41,80.6
		l-8.84-47.45l-8.71,47.45H240.41z"/>
	<path class="st1" d="M268.62,88.14l13-3.51c0.78,11.31,3.64,22.62,14.95,22.62c7.54,0,11.57-4.29,11.57-12.35
		c0-9.49-4.81-14.43-11.44-20.28l-17.68-15.6c-7.02-6.11-10.14-12.74-10.14-23.27c0-15.47,9.49-24.31,24.7-24.31
		c16.77,0,24.83,8.71,26.52,27.17l-12.48,3.38c-0.78-10.4-3.12-19.24-14.04-19.24c-7.28,0-11.57,3.9-11.57,11.57
		c0,6.37,1.95,10.01,6.89,14.3l17.81,15.6c7.93,7.02,15.08,16.38,15.08,29.51c0,15.6-10.53,25.09-25.22,25.09
		C278.24,118.82,269.66,106.34,268.62,88.14z"/>
	<path class="st1" d="M334.01,12.35h14.43v105.3h-14.43V12.35z"/>
	<path class="st1" d="M393.28,83.85V46.67c0-21.32,5.98-35.23,28.34-35.23c19.63,0,26.52,11.31,26.52,30.29v8.32h-13.91v-7.41
		c0-11.7-0.26-19.76-12.48-19.76c-12.48,0-13.65,8.58-13.65,21.58v41.73c0,15.86,3.51,21.06,13.65,21.06
		c11.83,0,12.48-8.45,12.48-20.93v-7.8h13.91v7.8c0,19.37-5.85,32.5-26.52,32.5C399.26,118.82,393.28,103.48,393.28,83.85z"/>
	<path class="st1" d="M459.71,91V69.16c0-16.9,5.2-27.69,21.97-27.69c16.64,0,21.84,10.79,21.84,27.69V91
		c0,16.9-5.2,27.69-21.84,27.69C464.91,118.69,459.71,107.9,459.71,91z M489.61,91.91V68.38c0-8.45,0-16.64-7.93-16.64
		c-8.06,0-8.06,8.19-8.06,16.64v23.53c0,8.45,0,16.51,8.06,16.51C489.61,108.42,489.61,100.36,489.61,91.91z"/>
	<path class="st1" d="M516.26,42.51h13.91v7.41c4.94-4.68,11.05-8.45,18.33-8.45c8.97,0,11.31,8.06,11.31,15.34v60.84H545.9V60.84
		c0-5.33-1.17-8.45-5.98-8.45c-3.12,0-6.63,2.08-9.75,4.68v60.58h-13.91V42.51z"/>
	<path class="st1" d="M577.1,100.75V51.74h-7.93v-9.23h7.93V20.54h13.91v21.97h12.09v9.23h-12.09v48.1c0,5.85,1.43,8.19,6.89,8.19
		c1.3,0,3.38-0.13,5.07-0.39v10.27c-3.51,0.52-6.11,0.78-9.62,0.78C581.52,118.69,577.1,111.67,577.1,100.75z"/>
	<path class="st1" d="M613.76,42.51h13.91v10.66c5.46-9.1,11.05-11.57,16.64-11.57c0.65,0,1.17,0,2.21,0.13v15.34
		c-2.08-0.78-4.94-1.56-7.67-1.56c-4.29,0-7.67,1.56-11.18,7.28v54.86h-13.91V42.51z"/>
	<path class="st1" d="M653.8,91V69.16c0-16.9,5.2-27.69,21.97-27.69c16.64,0,21.84,10.79,21.84,27.69V91
		c0,16.9-5.2,27.69-21.84,27.69C659,118.69,653.8,107.9,653.8,91z M683.7,91.91V68.38c0-8.45,0-16.64-7.93-16.64
		c-8.06,0-8.06,8.19-8.06,16.64v23.53c0,8.45,0,16.51,8.06,16.51C683.7,108.42,683.7,100.36,683.7,91.91z"/>
	<path class="st1" d="M711.65,12.35h13.91v105.3h-13.91V12.35z"/>
</g>
<g>
	<path class="st0" d="M154.8,144.62h16.01v4.28h-10.25v13.67h8.31v4.08h-8.31v15.15h10.35v4.13H154.8V144.62z"/>
	<path class="st0" d="M175.66,144.62h5.46v41.31h-5.46V144.62z"/>
	<path class="st0" d="M186.31,174.56v-6.73c0-7.8,1.94-11.78,8.72-11.78c7.39,0,8.36,4.79,8.36,12.85v2.4h-11.63v5.92
		c0,3.57,0.97,5.1,3.31,5.1c2.45,0,2.96-1.89,2.96-4.84v-1.79h5.3v1.12c0,5.92-2.29,9.54-8.31,9.54
		C188.1,186.34,186.31,182.26,186.31,174.56z M198.04,168.34v-2.65c0-3.62-0.36-5.61-3.06-5.61c-2.65,0-3.21,1.58-3.21,6.68v1.58
		H198.04z"/>
	<path class="st0" d="M208.5,144.57h5.46v24.63l7.96-12.75h5.71l-6.94,11.52l6.73,17.95h-5.46l-5.51-15.09l-2.5,3.77v11.27h-5.46
		V144.57z"/>
	<path class="st0" d="M231.81,179.3v-19.23h-3.11v-3.62h3.11v-8.62h5.46v8.62H242v3.62h-4.74v18.87c0,2.29,0.56,3.21,2.7,3.21
		c0.51,0,1.33-0.05,1.99-0.15v4.03c-1.38,0.2-2.4,0.31-3.77,0.31C233.54,186.34,231.81,183.58,231.81,179.3z"/>
	<path class="st0" d="M246.24,156.45h5.46v4.18c2.14-3.57,4.33-4.54,6.53-4.54c0.25,0,0.46,0,0.87,0.05v6.02
		c-0.82-0.31-1.94-0.61-3.01-0.61c-1.68,0-3.01,0.61-4.39,2.86v21.52h-5.46V156.45z"/>
	<path class="st0" d="M262,175.48v-8.57c0-6.63,2.04-10.86,8.62-10.86c6.53,0,8.57,4.23,8.57,10.86v8.57
		c0,6.63-2.04,10.86-8.57,10.86C264.04,186.34,262,182.1,262,175.48z M273.73,175.83v-9.23c0-3.31,0-6.53-3.11-6.53
		c-3.16,0-3.16,3.21-3.16,6.53v9.23c0,3.31,0,6.48,3.16,6.48C273.73,182.31,273.73,179.15,273.73,175.83z"/>
	<path class="st0" d="M284.23,156.45h5.46v2.91c1.94-1.84,4.33-3.31,7.19-3.31c3.52,0,4.44,3.16,4.44,6.02v23.87h-5.46v-22.29
		c0-2.09-0.46-3.31-2.35-3.31c-1.22,0-2.6,0.82-3.82,1.84v23.76h-5.46V156.45z"/>
	<path class="st0" d="M307.03,146.36h5.46v5.71h-5.46V146.36z M307.03,156.45h5.46v29.47h-5.46V156.45z"/>
	<path class="st0" d="M316.92,178.08l4.54-1.38c0.51,3.77,1.73,5.61,4.23,5.61c1.94,0,3.01-1.22,3.01-3.11
		c0-1.68-0.71-2.96-2.4-4.39l-5.05-4.33c-2.04-1.73-3.62-3.72-3.62-7.19c0-4.64,3.01-7.24,7.6-7.24c4.69,0,7.14,3.47,7.5,7.75
		l-3.67,1.38c-0.41-3.06-1.28-5.1-3.62-5.1c-1.79,0-2.91,1.38-2.91,3.01c0,1.02,0.41,1.99,1.48,2.96l5.2,4.79
		c2.09,1.94,4.18,4.18,4.18,7.96c0,5.05-3.31,7.55-8.16,7.55S317.33,183.02,316.92,178.08z"/>
	<path class="st0" d="M336.96,174.61v-6.78c0-7.39,1.48-11.78,8.62-11.78c6.43,0,8.06,3.21,8.06,9.28v1.73h-4.95v-1.79
		c0-3.82-0.66-5.2-3.06-5.2c-2.7,0-3.21,1.63-3.21,6.63v9.28c0,5.05,0.82,6.32,3.26,6.32c2.7,0,3.01-2.09,3.01-5.1v-2.4h4.95v2.04
		c0,5.97-1.73,9.49-8.06,9.49C338.34,186.34,336.96,181.7,336.96,174.61z"/>
	<path class="st0" d="M358.69,144.62h5.46v14.89c1.99-1.89,4.39-3.47,7.39-3.47c3.47,0,4.38,3.16,4.38,6.02v23.87h-5.46v-22.29
		c0-2.09-0.46-3.31-2.35-3.31c-1.28,0-2.75,0.87-3.98,1.94v23.66h-5.46V144.62z"/>
	<path class="st0" d="M380.72,174.56v-6.73c0-7.8,1.94-11.78,8.72-11.78c7.39,0,8.36,4.79,8.36,12.85v2.4h-11.63v5.92
		c0,3.57,0.97,5.1,3.31,5.1c2.45,0,2.96-1.89,2.96-4.84v-1.79h5.3v1.12c0,5.92-2.29,9.54-8.31,9.54
		C382.51,186.34,380.72,182.26,380.72,174.56z M392.45,168.34v-2.65c0-3.62-0.36-5.61-3.06-5.61c-2.65,0-3.21,1.58-3.21,6.68v1.58
		H392.45z"/>
	<path class="st0" d="M421.52,144.62h5.56l8.82,41.31h-5.46l-1.89-10.4h-8.41l-1.99,10.4h-5.41L421.52,144.62z M427.79,171.4
		l-3.47-18.61l-3.42,18.61H427.79z"/>
	<path class="st0" d="M439.83,156.45h5.46v4.18c2.14-3.57,4.33-4.54,6.53-4.54c0.25,0,0.46,0,0.87,0.05v6.02
		c-0.82-0.31-1.94-0.61-3.01-0.61c-1.68,0-3.01,0.61-4.39,2.86v21.52h-5.46V156.45z"/>
	<path class="st0" d="M461.66,183.79v2.14h-5.46v-41.31h5.46v14.18c1.27-1.48,3.06-2.75,5.56-2.75c6.17,0,6.73,7.55,6.73,11.07v7.14
		c0,6.27-1.48,12.09-7.29,12.09C464.57,186.34,462.88,185.11,461.66,183.79z M468.49,174.25v-7.14c0-3.67-0.36-6.78-3.16-6.78
		c-1.43,0-2.7,0.71-3.67,1.48v18.92c0.97,0.76,2.29,1.33,3.88,1.33C468.34,182.05,468.49,178.59,468.49,174.25z"/>
	<path class="st0" d="M478.39,174.56v-6.73c0-7.8,1.94-11.78,8.72-11.78c7.39,0,8.36,4.79,8.36,12.85v2.4h-11.63v5.92
		c0,3.57,0.97,5.1,3.31,5.1c2.45,0,2.96-1.89,2.96-4.84v-1.79h5.3v1.12c0,5.92-2.29,9.54-8.31,9.54
		C480.17,186.34,478.39,182.26,478.39,174.56z M490.12,168.34v-2.65c0-3.62-0.36-5.61-3.06-5.61c-2.65,0-3.21,1.58-3.21,6.68v1.58
		H490.12z"/>
	<path class="st0" d="M500.83,146.36h5.46v5.71h-5.46V146.36z M500.83,156.45h5.46v29.47h-5.46V156.45z"/>
	<path class="st0" d="M513.68,179.3v-19.23h-3.11v-3.62h3.11v-8.62h5.46v8.62h4.74v3.62h-4.74v18.87c0,2.29,0.56,3.21,2.7,3.21
		c0.51,0,1.33-0.05,1.99-0.15v4.03c-1.38,0.2-2.4,0.31-3.77,0.31C515.41,186.34,513.68,183.58,513.68,179.3z"/>
	<path class="st0" d="M526.48,178.08l4.54-1.38c0.51,3.77,1.73,5.61,4.23,5.61c1.94,0,3.01-1.22,3.01-3.11
		c0-1.68-0.71-2.96-2.4-4.39l-5.05-4.33c-2.04-1.73-3.62-3.72-3.62-7.19c0-4.64,3.01-7.24,7.6-7.24c4.69,0,7.14,3.47,7.5,7.75
		l-3.67,1.38c-0.41-3.06-1.28-5.1-3.62-5.1c-1.79,0-2.91,1.38-2.91,3.01c0,1.02,0.41,1.99,1.48,2.96l5.2,4.79
		c2.09,1.94,4.18,4.18,4.18,7.96c0,5.05-3.31,7.55-8.16,7.55S526.89,183.02,526.48,178.08z"/>
	<path class="st0" d="M545.6,178.08l4.54-1.38c0.51,3.77,1.73,5.61,4.23,5.61c1.94,0,3.01-1.22,3.01-3.11c0-1.68-0.71-2.96-2.4-4.39
		l-5.05-4.33c-2.04-1.73-3.62-3.72-3.62-7.19c0-4.64,3.01-7.24,7.6-7.24c4.69,0,7.14,3.47,7.5,7.75l-3.67,1.38
		c-0.41-3.06-1.28-5.1-3.62-5.1c-1.79,0-2.91,1.38-2.91,3.01c0,1.02,0.41,1.99,1.48,2.96l5.2,4.79c2.09,1.94,4.18,4.18,4.18,7.96
		c0,5.05-3.31,7.55-8.16,7.55S546.01,183.02,545.6,178.08z"/>
	<path class="st0" d="M566.56,146.36h5.46v5.71h-5.46V146.36z M566.56,156.45h5.46v29.47h-5.46V156.45z"/>
	<path class="st0" d="M577.37,174.61v-6.78c0-7.39,1.48-11.78,8.62-11.78c6.43,0,8.06,3.21,8.06,9.28v1.73h-4.95v-1.79
		c0-3.82-0.66-5.2-3.06-5.2c-2.7,0-3.21,1.63-3.21,6.63v9.28c0,5.05,0.82,6.32,3.26,6.32c2.7,0,3.01-2.09,3.01-5.1v-2.4h4.95v2.04
		c0,5.97-1.73,9.49-8.06,9.49C578.75,186.34,577.37,181.7,577.37,174.61z"/>
	<path class="st0" d="M599.1,144.62h5.46v14.89c1.99-1.89,4.39-3.47,7.39-3.47c3.47,0,4.38,3.16,4.38,6.02v23.87h-5.46v-22.29
		c0-2.09-0.46-3.31-2.35-3.31c-1.28,0-2.75,0.87-3.98,1.94v23.66h-5.46V144.62z"/>
	<path class="st0" d="M621.13,174.56v-6.73c0-7.8,1.94-11.78,8.72-11.78c7.39,0,8.36,4.79,8.36,12.85v2.4h-11.63v5.92
		c0,3.57,0.97,5.1,3.31,5.1c2.45,0,2.96-1.89,2.96-4.84v-1.79h5.3v1.12c0,5.92-2.29,9.54-8.31,9.54
		C622.92,186.34,621.13,182.26,621.13,174.56z M632.86,168.34v-2.65c0-3.62-0.36-5.61-3.06-5.61c-2.65,0-3.21,1.58-3.21,6.68v1.58
		H632.86z"/>
	<path class="st0" d="M643.37,156.45h5.46v4.18c2.14-3.57,4.33-4.54,6.53-4.54c0.25,0,0.46,0,0.87,0.05v6.02
		c-0.82-0.31-1.94-0.61-3.01-0.61c-1.68,0-3.01,0.61-4.39,2.86v21.52h-5.46V156.45z"/>
	<path class="st0" d="M659.79,144.62h5.46v14.89c1.99-1.89,4.39-3.47,7.39-3.47c3.47,0,4.38,3.16,4.38,6.02v23.87h-5.46v-22.29
		c0-2.09-0.46-3.31-2.35-3.31c-1.28,0-2.75,0.87-3.98,1.94v23.66h-5.46V144.62z"/>
	<path class="st0" d="M681.82,174.56v-6.73c0-7.8,1.94-11.78,8.72-11.78c7.39,0,8.36,4.79,8.36,12.85v2.4h-11.63v5.92
		c0,3.57,0.97,5.1,3.31,5.1c2.45,0,2.96-1.89,2.96-4.84v-1.79h5.3v1.12c0,5.92-2.29,9.54-8.31,9.54
		C683.61,186.34,681.82,182.26,681.82,174.56z M693.55,168.34v-2.65c0-3.62-0.36-5.61-3.06-5.61c-2.65,0-3.21,1.58-3.21,6.68v1.58
		H693.55z"/>
	<path class="st0" d="M704.26,146.36h5.46v5.71h-5.46V146.36z M704.26,156.45h5.46v29.47h-5.46V156.45z"/>
	<path class="st0" d="M717.11,179.3v-19.23H714v-3.62h3.11v-8.62h5.46v8.62h4.74v3.62h-4.74v18.87c0,2.29,0.56,3.21,2.7,3.21
		c0.51,0,1.33-0.05,1.99-0.15v4.03c-1.38,0.2-2.4,0.31-3.77,0.31C718.85,186.34,717.11,183.58,717.11,179.3z"/>
</g>
</svg>
