<?xml version="1.0" encoding="utf-8"?>
<!-- Generator: Adobe Illustrator 24.1.3, SVG Export Plug-In . SVG Version: 6.00 Build 0)  -->
<svg version="1.1" id="Ebene_1" xmlns="http://www.w3.org/2000/svg" xmlns:xlink="http://www.w3.org/1999/xlink" x="0px" y="0px"
	 viewBox="0 0 751.77 200.57" style="enable-background:new 0 0 751.77 200.57;" xml:space="preserve">
<style type="text/css">
	.st0{clip-path:url(#SVGID_2_);fill:#142936;}
	.st1{clip-path:url(#SVGID_2_);fill:#ED6B26;}
	.st2{clip-path:url(#SVGID_2_);}
	.st3{clip-path:url(#SVGID_4_);fill:#ED6B26;}
	.st4{clip-path:url(#SVGID_4_);}
	.st5{fill:#FEF9F8;}
	.st6{font-family:'Oswald-Regular';}
	.st7{font-size:130px;}
	.st8{fill:#ED6B26;}
	.st9{font-size:51px;}
</style>
<g id="Bildmaterial_6_1_">
	<g>
		<defs>
			<rect id="SVGID_1_" x="-7.45" y="-9.58" width="781.67" height="232.45"/>
		</defs>
		<clipPath id="SVGID_2_">
			<use xlink:href="#SVGID_1_"  style="overflow:visible;"/>
		</clipPath>
		<rect x="-7.45" y="-9.58" class="st0" width="781.67" height="232.45"/>
		<rect x="7.5" y="10.14" class="st1" width="42.54" height="178.02"/>
		<g class="st2">
			<defs>
				<rect id="SVGID_3_" x="-7.45" y="-9.58" width="781.67" height="232.45"/>
			</defs>
			<clipPath id="SVGID_4_">
				<use xlink:href="#SVGID_3_"  style="overflow:visible;"/>
			</clipPath>
			<path class="st3" d="M94.99,99.15c0,11.68-10.06,21.15-22.47,21.15s-22.47-9.47-22.47-21.15C50.04,87.47,60.1,78,72.51,78
				S94.99,87.47,94.99,99.15"/>
			<polygon class="st3" points="102.32,67.35 72.51,10.29 131.8,10.14 			"/>
			<polygon class="st3" points="102.49,130.9 131.85,188.17 72.57,187.9 			"/>
			<g class="st4">
				<text transform="matrix(1 0 0 1 154.1814 118.4178)" class="st5 st6 st7">EASI Control</text>
			</g>
		</g>
		<g class="st2">
			<text transform="matrix(1 0 0 1 159.0891 186.6971)"><tspan x="0" y="0" class="st8 st6 st9">E</tspan><tspan x="20.76" y="0" class="st8 st6 st9">lekt</tspan><tspan x="91.7" y="0" class="st8 st6 st9">r</tspan><tspan x="108.07" y="0" class="st8 st6 st9">oni</tspan><tspan x="163.96" y="0" class="st8 st6 st9">s</tspan><tspan x="183.03" y="0" class="st8 st6 st9">che Arbeit</tspan><tspan x="373.47" y="0" class="st8 st6 st9">s</tspan><tspan x="392.54" y="0" class="st8 st6 st9">sicherhei</tspan><tspan x="561.09" y="0" class="st8 st6 st9">t</tspan></text>
		</g>
	</g>
</g>
</svg>
