<svg id="Ebene_1" data-name="Ebene 1" xmlns="http://www.w3.org/2000/svg" viewBox="0 0 572.52 174.9"><path d="M8.19,12.35H49V23.27H22.88V58.11H44.07v10.4H22.88v38.61H49.27v10.53H8.19Z" transform="translate(-8.12 -11.44)" style="fill:#fef9f8"/><path d="M77.74,12.35H91.91l22.49,105.3H100.49L95.68,91.13H74.23l-5.07,26.52H55.38Zm16,68.25L84.89,33.15,76.18,80.6Z" transform="translate(-8.12 -11.44)" style="fill:#fef9f8"/><path d="M121.94,88.14l13-3.51c.78,11.31,3.64,22.62,14.95,22.62,7.54,0,11.57-4.29,11.57-12.35,0-9.49-4.81-14.43-11.44-20.28L132.34,59c-7-6.11-10.14-12.74-10.14-23.27,0-15.47,9.49-24.31,24.7-24.31,16.77,0,24.83,8.71,26.52,27.17L160.94,42c-.78-10.4-3.12-19.24-14-19.24-7.28,0-11.57,3.9-11.57,11.57,0,6.37,1.95,10,6.89,14.3L160,64.22c7.93,7,15.08,16.38,15.08,29.51,0,15.6-10.53,25.09-25.22,25.09C131.56,118.82,123,106.34,121.94,88.14Z" transform="translate(-8.12 -11.44)" style="fill:#fef9f8"/><path d="M187.33,12.35h14.43v105.3H187.33Z" transform="translate(-8.12 -11.44)" style="fill:#fef9f8"/><path d="M246.61,83.85V46.67c0-21.32,6-35.23,28.34-35.23,19.63,0,26.52,11.31,26.52,30.29v8.32H287.56V42.64c0-11.7-.26-19.76-12.48-19.76-12.48,0-13.65,8.58-13.65,21.58V86.19c0,15.86,3.51,21.06,13.65,21.06,11.83,0,12.48-8.45,12.48-20.93v-7.8h13.91v7.8c0,19.37-5.85,32.5-26.52,32.5C252.59,118.82,246.61,103.48,246.61,83.85Z" transform="translate(-8.12 -11.44)" style="fill:#fef9f8"/><path d="M313,91V69.16c0-16.9,5.21-27.69,22-27.69s21.84,10.79,21.84,27.69V91c0,16.9-5.2,27.69-21.84,27.69S313,107.9,313,91Zm29.91.91V68.38c0-8.45,0-16.64-7.93-16.64S327,59.93,327,68.38V91.91c0,8.45,0,16.51,8.06,16.51S342.94,100.36,342.94,91.91Z" transform="translate(-8.12 -11.44)" style="fill:#fef9f8"/><path d="M369.58,42.51h13.91v7.41c4.94-4.68,11.05-8.45,18.33-8.45,9,0,11.32,8.06,11.32,15.34v60.84H399.22V60.84c0-5.33-1.17-8.45-6-8.45-3.12,0-6.63,2.08-9.75,4.68v60.58H369.58Z" transform="translate(-8.12 -11.44)" style="fill:#fef9f8"/><path d="M430.42,100.75v-49h-7.93V42.51h7.93v-22h13.91v22h12.09v9.23H444.33v48.1c0,5.85,1.43,8.19,6.89,8.19a37.49,37.49,0,0,0,5.07-.39v10.27a60,60,0,0,1-9.62.78C434.84,118.69,430.42,111.67,430.42,100.75Z" transform="translate(-8.12 -11.44)" style="fill:#fef9f8"/><path d="M467.08,42.51H481V53.17c5.46-9.1,11.05-11.57,16.64-11.57a15,15,0,0,1,2.21.13V57.07a23,23,0,0,0-7.67-1.56c-4.29,0-7.67,1.56-11.18,7.28v54.86H467.08Z" transform="translate(-8.12 -11.44)" style="fill:#fef9f8"/><path d="M507.12,91V69.16c0-16.9,5.2-27.69,22-27.69s21.84,10.79,21.84,27.69V91c0,16.9-5.2,27.69-21.84,27.69S507.12,107.9,507.12,91Zm29.9.91V68.38c0-8.45,0-16.64-7.93-16.64S521,59.93,521,68.38V91.91c0,8.45,0,16.51,8.06,16.51S537,100.36,537,91.91Z" transform="translate(-8.12 -11.44)" style="fill:#fef9f8"/><path d="M565,12.35h13.91v105.3H565Z" transform="translate(-8.12 -11.44)" style="fill:#fef9f8"/><path d="M8.12,144.62h16v4.29H13.88v13.66h8.31v4.08H13.88V181.8H24.23v4.13H8.12Z" transform="translate(-8.12 -11.44)" style="fill:#ed6b26"/><path d="M29,144.62h5.46v41.31H29Z" transform="translate(-8.12 -11.44)" style="fill:#ed6b26"/><path d="M39.64,174.56v-6.73c0-7.81,1.93-11.78,8.72-11.78,7.39,0,8.36,4.79,8.36,12.85v2.39H45.09v5.92c0,3.57,1,5.1,3.32,5.1s3-1.89,3-4.85v-1.78h5.3v1.12c0,5.92-2.3,9.54-8.31,9.54C41.42,186.34,39.64,182.26,39.64,174.56Zm11.73-6.22v-2.66c0-3.62-.36-5.61-3.06-5.61s-3.22,1.59-3.22,6.69v1.58Z" transform="translate(-8.12 -11.44)" style="fill:#ed6b26"/><path d="M61.82,144.57h5.46V169.2l8-12.75h5.71L74,168l6.73,18H75.28l-5.5-15.1-2.5,3.78v11.27H61.82Z" transform="translate(-8.12 -11.44)" style="fill:#ed6b26"/><path d="M85.13,179.3V160.07H82v-3.62h3.11v-8.61h5.45v8.61h4.75v3.62H90.58v18.87c0,2.3.57,3.22,2.71,3.22a15.25,15.25,0,0,0,2-.16v4a24.09,24.09,0,0,1-3.78.31C86.86,186.34,85.13,183.58,85.13,179.3Z" transform="translate(-8.12 -11.44)" style="fill:#ed6b26"/><path d="M99.56,156.45H105v4.19c2.14-3.57,4.33-4.54,6.52-4.54a6,6,0,0,1,.87.05v6a8.89,8.89,0,0,0-3-.62c-1.68,0-3,.62-4.38,2.86v21.52H99.56Z" transform="translate(-8.12 -11.44)" style="fill:#ed6b26"/><path d="M115.32,175.48v-8.57c0-6.63,2-10.86,8.62-10.86s8.57,4.23,8.57,10.86v8.57c0,6.62-2,10.86-8.57,10.86S115.32,182.1,115.32,175.48Zm11.73.35V166.6c0-3.31,0-6.53-3.11-6.53s-3.16,3.22-3.16,6.53v9.23c0,3.32,0,6.48,3.16,6.48S127.05,179.15,127.05,175.83Z" transform="translate(-8.12 -11.44)" style="fill:#ed6b26"/><path d="M137.56,156.45H143v2.91a10.56,10.56,0,0,1,7.19-3.31c3.52,0,4.44,3.16,4.44,6v23.87h-5.46V163.64c0-2.09-.46-3.31-2.34-3.31a6.68,6.68,0,0,0-3.83,1.84v23.76h-5.45Z" transform="translate(-8.12 -11.44)" style="fill:#ed6b26"/><path d="M160.35,146.36h5.46v5.71h-5.46Zm0,10.09h5.46v29.48h-5.46Z" transform="translate(-8.12 -11.44)" style="fill:#ed6b26"/><path d="M170.25,178.08l4.53-1.38c.51,3.77,1.74,5.61,4.24,5.61a2.82,2.82,0,0,0,3-3.11c0-1.68-.72-3-2.4-4.39l-5-4.33c-2-1.74-3.62-3.72-3.62-7.19,0-4.64,3-7.24,7.6-7.24s7.14,3.46,7.49,7.75l-3.67,1.37c-.4-3.06-1.27-5.1-3.62-5.1a2.87,2.87,0,0,0-2.9,3,3.86,3.86,0,0,0,1.47,3l5.21,4.79c2.09,1.94,4.18,4.19,4.18,8,0,5.05-3.32,7.55-8.16,7.55S170.65,183,170.25,178.08Z" transform="translate(-8.12 -11.44)" style="fill:#ed6b26"/><path d="M190.29,174.61v-6.78c0-7.4,1.48-11.78,8.62-11.78,6.42,0,8.05,3.21,8.05,9.28v1.73H202v-1.78c0-3.83-.67-5.21-3.06-5.21-2.71,0-3.22,1.64-3.22,6.63V176c0,5.05.82,6.33,3.27,6.33,2.7,0,3-2.09,3-5.1v-2.4H207v2c0,6-1.73,9.49-8.05,9.49C191.66,186.34,190.29,181.7,190.29,174.61Z" transform="translate(-8.12 -11.44)" style="fill:#ed6b26"/><path d="M212,144.62h5.46v14.89c2-1.88,4.39-3.46,7.39-3.46,3.47,0,4.39,3.16,4.39,6v23.87h-5.46V163.64c0-2.09-.46-3.31-2.34-3.31a6.77,6.77,0,0,0-4,1.94v23.66H212Z" transform="translate(-8.12 -11.44)" style="fill:#ed6b26"/><path d="M234.05,174.56v-6.73c0-7.81,1.93-11.78,8.72-11.78,7.39,0,8.36,4.79,8.36,12.85v2.39H239.5v5.92c0,3.57,1,5.1,3.32,5.1s3-1.89,3-4.85v-1.78h5.31v1.12c0,5.92-2.3,9.54-8.31,9.54C235.83,186.34,234.05,182.26,234.05,174.56Zm11.72-6.22v-2.66c0-3.62-.35-5.61-3.05-5.61s-3.22,1.59-3.22,6.69v1.58Z" transform="translate(-8.12 -11.44)" style="fill:#ed6b26"/><path d="M274.84,144.62h5.56l8.82,41.31h-5.45l-1.89-10.4h-8.41l-2,10.4h-5.41Zm6.28,26.78-3.47-18.62-3.42,18.62Z" transform="translate(-8.12 -11.44)" style="fill:#ed6b26"/><path d="M293.15,156.45h5.46v4.19c2.14-3.57,4.33-4.54,6.53-4.54a5.9,5.9,0,0,1,.86.05v6a8.83,8.83,0,0,0-3-.62c-1.69,0-3,.62-4.39,2.86v21.52h-5.46Z" transform="translate(-8.12 -11.44)" style="fill:#ed6b26"/><path d="M315,183.79v2.14h-5.46V144.62H315V158.8a7.2,7.2,0,0,1,5.56-2.75c6.17,0,6.73,7.54,6.73,11.06v7.14c0,6.27-1.48,12.09-7.29,12.09A7,7,0,0,1,315,183.79Zm6.83-9.54v-7.14c0-3.67-.35-6.78-3.16-6.78a6.08,6.08,0,0,0-3.67,1.48v18.92a6.26,6.26,0,0,0,3.88,1.32C321.66,182.05,321.81,178.59,321.81,174.25Z" transform="translate(-8.12 -11.44)" style="fill:#ed6b26"/><path d="M331.71,174.56v-6.73c0-7.81,1.94-11.78,8.72-11.78,7.39,0,8.36,4.79,8.36,12.85v2.39H337.17v5.92c0,3.57,1,5.1,3.31,5.1s3-1.89,3-4.85v-1.78h5.3v1.12c0,5.92-2.29,9.54-8.31,9.54C333.49,186.34,331.71,182.26,331.71,174.56Zm11.73-6.22v-2.66c0-3.62-.36-5.61-3.06-5.61s-3.21,1.59-3.21,6.69v1.58Z" transform="translate(-8.12 -11.44)" style="fill:#ed6b26"/><path d="M354.15,146.36h5.46v5.71h-5.46Zm0,10.09h5.46v29.48h-5.46Z" transform="translate(-8.12 -11.44)" style="fill:#ed6b26"/><path d="M367,179.3V160.07h-3.11v-3.62H367v-8.61h5.46v8.61h4.74v3.62h-4.74v18.87c0,2.3.56,3.22,2.7,3.22a15.12,15.12,0,0,0,2-.16v4a24.06,24.06,0,0,1-3.77.31C368.73,186.34,367,183.58,367,179.3Z" transform="translate(-8.12 -11.44)" style="fill:#ed6b26"/><path d="M379.8,178.08l4.54-1.38c.51,3.77,1.73,5.61,4.23,5.61a2.82,2.82,0,0,0,3-3.11c0-1.68-.71-3-2.39-4.39l-5.05-4.33c-2-1.74-3.62-3.72-3.62-7.19,0-4.64,3-7.24,7.59-7.24s7.14,3.46,7.5,7.75l-3.67,1.37c-.41-3.06-1.28-5.1-3.62-5.1a2.87,2.87,0,0,0-2.91,3,3.88,3.88,0,0,0,1.48,3l5.2,4.79c2.09,1.94,4.18,4.19,4.18,8,0,5.05-3.31,7.55-8.16,7.55S380.21,183,379.8,178.08Z" transform="translate(-8.12 -11.44)" style="fill:#ed6b26"/><path d="M398.93,178.08l4.54-1.38c.51,3.77,1.73,5.61,4.23,5.61a2.82,2.82,0,0,0,3-3.11c0-1.68-.72-3-2.4-4.39l-5.05-4.33c-2-1.74-3.62-3.72-3.62-7.19,0-4.64,3-7.24,7.6-7.24s7.14,3.46,7.49,7.75l-3.67,1.37c-.4-3.06-1.27-5.1-3.62-5.1a2.87,2.87,0,0,0-2.9,3,3.85,3.85,0,0,0,1.48,3l5.2,4.79c2.09,1.94,4.18,4.19,4.18,8,0,5.05-3.32,7.55-8.16,7.55S399.33,183,398.93,178.08Z" transform="translate(-8.12 -11.44)" style="fill:#ed6b26"/><path d="M419.89,146.36h5.45v5.71h-5.45Zm0,10.09h5.45v29.48h-5.45Z" transform="translate(-8.12 -11.44)" style="fill:#ed6b26"/><path d="M430.7,174.61v-6.78c0-7.4,1.48-11.78,8.62-11.78,6.42,0,8.05,3.21,8.05,9.28v1.73h-4.94v-1.78c0-3.83-.67-5.21-3.06-5.21-2.71,0-3.22,1.64-3.22,6.63V176c0,5.05.82,6.33,3.27,6.33,2.7,0,3-2.09,3-5.1v-2.4h4.94v2c0,6-1.73,9.49-8.05,9.49C432.07,186.34,430.7,181.7,430.7,174.61Z" transform="translate(-8.12 -11.44)" style="fill:#ed6b26"/><path d="M452.42,144.62h5.46v14.89c2-1.88,4.39-3.46,7.39-3.46,3.47,0,4.39,3.16,4.39,6v23.87H464.2V163.64c0-2.09-.46-3.31-2.34-3.31a6.77,6.77,0,0,0-4,1.94v23.66h-5.46Z" transform="translate(-8.12 -11.44)" style="fill:#ed6b26"/><path d="M474.46,174.56v-6.73c0-7.81,1.93-11.78,8.72-11.78,7.39,0,8.36,4.79,8.36,12.85v2.39H479.91v5.92c0,3.57,1,5.1,3.32,5.1s3-1.89,3-4.85v-1.78h5.3v1.12c0,5.92-2.3,9.54-8.31,9.54C476.24,186.34,474.46,182.26,474.46,174.56Zm11.73-6.22v-2.66c0-3.62-.36-5.61-3.06-5.61s-3.22,1.59-3.22,6.69v1.58Z" transform="translate(-8.12 -11.44)" style="fill:#ed6b26"/><path d="M496.69,156.45h5.46v4.19c2.14-3.57,4.33-4.54,6.53-4.54a6,6,0,0,1,.86.05v6a8.89,8.89,0,0,0-3-.62c-1.68,0-3,.62-4.38,2.86v21.52h-5.46Z" transform="translate(-8.12 -11.44)" style="fill:#ed6b26"/><path d="M513.11,144.62h5.46v14.89c2-1.88,4.39-3.46,7.39-3.46,3.47,0,4.39,3.16,4.39,6v23.87h-5.46V163.64c0-2.09-.46-3.31-2.34-3.31a6.77,6.77,0,0,0-4,1.94v23.66h-5.46Z" transform="translate(-8.12 -11.44)" style="fill:#ed6b26"/><path d="M535.14,174.56v-6.73c0-7.81,1.94-11.78,8.72-11.78,7.4,0,8.37,4.79,8.37,12.85v2.39H540.6v5.92c0,3.57,1,5.1,3.32,5.1s3-1.89,3-4.85v-1.78h5.31v1.12c0,5.92-2.3,9.54-8.32,9.54C536.93,186.34,535.14,182.26,535.14,174.56Zm11.73-6.22v-2.66c0-3.62-.35-5.61-3.06-5.61s-3.21,1.59-3.21,6.69v1.58Z" transform="translate(-8.12 -11.44)" style="fill:#ed6b26"/><path d="M557.58,146.36H563v5.71h-5.46Zm0,10.09H563v29.48h-5.46Z" transform="translate(-8.12 -11.44)" style="fill:#ed6b26"/><path d="M570.44,179.3V160.07h-3.11v-3.62h3.11v-8.61h5.45v8.61h4.75v3.62h-4.75v18.87c0,2.3.56,3.22,2.71,3.22a15,15,0,0,0,2-.16v4a23.87,23.87,0,0,1-3.77.31C572.17,186.34,570.44,183.58,570.44,179.3Z" transform="translate(-8.12 -11.44)" style="fill:#ed6b26"/></svg>